<?xml version="1.0" encoding="utf-8"?>
<svg version="1.1" xmlns:xlink="http://www.w3.org/1999/xlink" width="13px" height="14px" xmlns="http://www.w3.org/2000/svg">
  <g transform="matrix(1 0 0 1 -94 -524 )">
    <path d="M 9.8515625 12.71375  C 9.95052083333333 12.6029166666667  10 12.4716666666667  10 12.32  C 10 12.1683333333333  9.95052083333333 12.0370833333333  9.8515625 11.92625  C 9.75260416666667 11.8154166666667  9.63541666666667 11.76  9.5 11.76  C 9.36458333333333 11.76  9.24739583333333 11.8154166666667  9.1484375 11.92625  C 9.04947916666667 12.0370833333333  9 12.1683333333333  9 12.32  C 9 12.4716666666667  9.04947916666667 12.6029166666667  9.1484375 12.71375  C 9.24739583333333 12.8245833333333  9.36458333333333 12.88  9.5 12.88  C 9.63541666666667 12.88  9.75260416666667 12.8245833333333  9.8515625 12.71375  Z M 11.8515625 12.71375  C 11.9505208333333 12.6029166666667  12 12.4716666666667  12 12.32  C 12 12.1683333333333  11.9505208333333 12.0370833333333  11.8515625 11.92625  C 11.7526041666667 11.8154166666667  11.6354166666667 11.76  11.5 11.76  C 11.3645833333333 11.76  11.2473958333333 11.8154166666667  11.1484375 11.92625  C 11.0494791666667 12.0370833333333  11 12.1683333333333  11 12.32  C 11 12.4716666666667  11.0494791666667 12.6029166666667  11.1484375 12.71375  C 11.2473958333333 12.8245833333333  11.3645833333333 12.88  11.5 12.88  C 11.6354166666667 12.88  11.7526041666667 12.8245833333333  11.8515625 12.71375  Z M 12.78125 9.765  C 12.9270833333333 9.92833333333333  13 10.1266666666667  13 10.36  L 13 13.16  C 13 13.3933333333333  12.9270833333333 13.5916666666667  12.78125 13.755  C 12.6354166666667 13.9183333333333  12.4583333333333 14  12.25 14  L 0.75 14  C 0.541666666666667 14  0.364583333333333 13.9183333333333  0.21875 13.755  C 0.0729166666666667 13.5916666666667  0 13.3933333333333  0 13.16  L 0 10.36  C 0 10.1266666666667  0.0729166666666667 9.92833333333333  0.21875 9.765  C 0.364583333333333 9.60166666666667  0.541666666666667 9.52  0.75 9.52  L 4.0859375 9.52  C 4.1953125 9.84666666666667  4.37890625 10.115  4.63671875 10.325  C 4.89453125 10.535  5.18229166666667 10.64  5.5 10.64  L 7.5 10.64  C 7.81770833333333 10.64  8.10546875 10.535  8.36328125 10.325  C 8.62109375 10.115  8.8046875 9.84666666666667  8.9140625 9.52  L 12.25 9.52  C 12.4583333333333 9.52  12.6354166666667 9.60166666666667  12.78125 9.765  Z M 10.3515625 4.08625  C 10.5130208333333 4.26125  10.5494791666667 4.4625  10.4609375 4.69  C 10.3723958333333 4.92333333333333  10.21875 5.04  10 5.04  L 8 5.04  L 8 8.96  C 8 9.11166666666667  7.95052083333333 9.24291666666667  7.8515625 9.35375  C 7.75260416666667 9.46458333333333  7.63541666666667 9.52  7.5 9.52  L 5.5 9.52  C 5.36458333333333 9.52  5.24739583333333 9.46458333333333  5.1484375 9.35375  C 5.04947916666667 9.24291666666667  5 9.11166666666667  5 8.96  L 5 5.04  L 3 5.04  C 2.78125 5.04  2.62760416666667 4.92333333333333  2.5390625 4.69  C 2.45052083333333 4.4625  2.48697916666667 4.26125  2.6484375 4.08625  L 6.1484375 0.16625  C 6.2421875 0.055416666666666  6.359375 0  6.5 0  C 6.640625 0  6.7578125 0.055416666666666  6.8515625 0.16625  L 10.3515625 4.08625  Z " fill-rule="nonzero" fill="#7f7f7f" stroke="none" transform="matrix(1 0 0 1 94 524 )" />
  </g>
</svg>