<?xml version="1.0" encoding="utf-8"?>
<svg version="1.1" xmlns:xlink="http://www.w3.org/1999/xlink" width="12px" height="12px" viewBox="336 163  12 12" xmlns="http://www.w3.org/2000/svg">
  <path d="M 342 163  C 345.36 163  348 165.64  348 169  C 348 172.36  345.36 175  342 175  C 338.64 175  336 172.36  336 169  C 336 165.64  338.64 163  342 163  Z " fill-rule="nonzero" fill="#ffffff" stroke="none" />
  <path d="M 342 163.5  C 345.08 163.5  347.5 165.92  347.5 169  C 347.5 172.08  345.08 174.5  342 174.5  C 338.92 174.5  336.5 172.08  336.5 169  C 336.5 165.92  338.92 163.5  342 163.5  Z " stroke-width="1" stroke="#797979" fill="none" />
  <path d="M 342 172  C 340.32 172  339 170.68  339 169  C 339 167.32  340.32 166  342 166  C 343.68 166  345 167.32  345 169  C 345 170.68  343.68 172  342 172  " fill-rule="nonzero" fill="#797979" stroke="none" />
</svg>