<?xml version="1.0" encoding="utf-8"?>
<svg version="1.1" xmlns:xlink="http://www.w3.org/1999/xlink" width="26px" height="26px" xmlns="http://www.w3.org/2000/svg">
  <g transform="matrix(1 0 0 1 -81 -805 )">
    <path d="M 24.6079196876743 0.159420289855071  C 24.9462725413646 -0.0434782608695681  25.2749581706637 -0.0338164251207771  25.5939765755717 0.18840579710145  C 25.9129949804796 0.420289855072463  26.0435025097602 0.729468599033814  25.9854991634133 1.11594202898551  L 22.2732849972114 23.3768115942029  C 22.2249488752556 23.6570048309179  22.0702732849972 23.8743961352657  21.8092582264361 24.0289855072464  C 21.67391708496 24.1062801932367  21.5240751068972 24.1449275362319  21.3597322922476 24.1449275362319  C 21.253392823945 24.1449275362319  21.1373861312512 24.1207729468599  21.0117122141662 24.0724637681159  L 13.3697713329615 20.9565217391304  L 9.04852203011712 25.695652173913  C 8.87451199107641 25.8985507246377  8.64733221788437 26  8.36698271054099 26  C 8.23164156906488 26  8.12046848856665 25.9806763285024  8.03346346904629 25.9420289855072  C 7.84978620561443 25.8743961352657  7.70477783974717 25.7608695652174  7.59843837144451 25.6014492753623  C 7.49209890314185 25.4420289855072  7.43892916899052 25.2657004830918  7.43892916899052 25.0724637681159  L 7.43892916899052 18.5217391304348  L 0.594534300055772 15.7246376811594  C 0.236846997583194 15.5893719806763  0.0435025097601785 15.3236714975845  0.0145008365867262 14.9275362318841  C -0.0145008365867262 14.5507246376812  0.140174753671686 14.2657004830918  0.478527607361963 14.0724637681159  L 24.6079196876743 0.159420289855071  Z M 13.5002788622421 19  L 20.6346904629113 21.9130434782609  L 23.8393753485778 2.73913043478261  L 3.04517568321249 14.7246376811594  L 7.91745677635248 16.7101449275362  L 20.4316787506972 7.44927536231884  L 13.5002788622421 19  Z " fill-rule="nonzero" fill="#9e2d42" stroke="none" transform="matrix(1 0 0 1 81 805 )" />
  </g>
</svg>