<?xml version="1.0" encoding="utf-8"?>
<svg version="1.1" xmlns:xlink="http://www.w3.org/1999/xlink" width="21px" height="25px" xmlns="http://www.w3.org/2000/svg">
  <g transform="matrix(1 0 0 1 -206 -808 )">
    <path d="M 20.5625 1.78571428571428  L 19.25 1.78571428571428  C 19.25 4.21316964285714  18.7646484375 6.35928199404762  17.7939453125 8.22405133928572  C 16.8232421875 10.0888206845238  15.6087239583333 11.5141369047619  14.150390625 12.5  C 15.6087239583333 13.4858630952381  16.8232421875 14.9111793154762  17.7939453125 16.7759486607143  C 18.7646484375 18.6407180059524  19.25 20.7868303571429  19.25 23.2142857142857  L 20.5625 23.2142857142857  C 20.6901041666667 23.2142857142857  20.794921875 23.2561383928571  20.876953125 23.33984375  C 20.958984375 23.4235491071429  21 23.530505952381  21 23.6607142857143  L 21 24.5535714285714  C 21 24.6837797619048  20.958984375 24.7907366071429  20.876953125 24.8744419642857  C 20.794921875 24.9581473214286  20.6901041666667 25  20.5625 25  L 0.4375 25  C 0.309895833333333 25  0.205078125 24.9581473214286  0.123046875 24.8744419642857  C 0.041015625 24.7907366071429  0 24.6837797619048  0 24.5535714285714  L 0 23.6607142857143  C 0 23.530505952381  0.041015625 23.4235491071429  0.123046875 23.33984375  C 0.205078125 23.2561383928571  0.309895833333333 23.2142857142857  0.4375 23.2142857142857  L 1.75 23.2142857142857  C 1.75 20.7868303571429  2.2353515625 18.6407180059524  3.2060546875 16.7759486607143  C 4.1767578125 14.9111793154762  5.39127604166667 13.4858630952381  6.849609375 12.5  C 5.39127604166667 11.5141369047619  4.1767578125 10.0888206845238  3.2060546875 8.22405133928572  C 2.2353515625 6.35928199404762  1.75 4.21316964285714  1.75 1.78571428571428  L 0.4375 1.78571428571428  C 0.309895833333333 1.78571428571428  0.205078125 1.74386160714286  0.123046875 1.66015625  C 0.041015625 1.57645089285714  0 1.46949404761905  0 1.33928571428572  L 0 0.446428571428573  C 0 0.316220238095236  0.041015625 0.209263392857142  0.123046875 0.125558035714285  C 0.205078125 0.0418526785714274  0.309895833333333 0  0.4375 0  L 20.5625 0  C 20.6901041666667 0  20.794921875 0.0418526785714274  20.876953125 0.125558035714285  C 20.958984375 0.209263392857142  21 0.316220238095236  21 0.446428571428573  L 21 1.33928571428572  C 21 1.46949404761905  20.958984375 1.57645089285714  20.876953125 1.66015625  C 20.794921875 1.74386160714286  20.6901041666667 1.78571428571428  20.5625 1.78571428571428  Z M 17.376953125 4  C 17.458984375 3.00409226190476  17.5 2.40885416666667  17.5 2  L 3.5 2  C 3.5 2.39955357142857  3.541015625 2.99479166666667  3.623046875 4  L 17.376953125 4  Z M 3.5 23  L 17.5 23  C 17.5 22.0052083333333  17.3450520833333 20.844959077381  17.03515625 19.7335379464286  C 16.7252604166667 18.6221168154762  16.3128255208333 17.6548549107143  15.7978515625 16.8317522321429  C 15.2828776041667 16.0086495535714  14.7063802083333 15.3018043154762  14.068359375 14.7112165178571  C 13.4303385416667 14.1206287202381  12.7649739583333 13.6811755952381  12.072265625 13.3928571428571  L 8.927734375 13.3928571428571  C 8.23502604166667 13.6811755952381  7.56966145833333 14.1206287202381  6.931640625 14.7112165178571  C 6.29361979166667 15.3018043154762  5.71712239583333 16.0086495535714  5.2021484375 16.8317522321429  C 4.68717447916667 17.6548549107143  4.27473958333333 18.6221168154762  3.96484375 19.7335379464286  C 3.65494791666667 20.844959077381  3.5 22.0052083333333  3.5 23  Z " fill-rule="nonzero" fill="#9e2d42" stroke="none" transform="matrix(1 0 0 1 206 808 )" />
  </g>
</svg>