<?xml version="1.0" encoding="utf-8"?>
<svg version="1.1" xmlns:xlink="http://www.w3.org/1999/xlink" width="28px" height="28px" xmlns="http://www.w3.org/2000/svg">
  <g transform="matrix(1 0 0 1 -78 -932 )">
    <path d="M 27.4015020219526 22.7267475447718  C 27.8005006739842 23.1473136915078  28 23.6379741960331  28 24.1987290583478  C 28 24.7702676680146  27.8005006739842 25.2555362988639  27.4015020219526 25.6545349508954  L 25.6707105719237 27.4015020219526  C 25.2501444251878 27.8005006739842  24.7594839206624 28  24.1987290583478 28  C 23.6271904486809 28  23.1419218178317 27.8005006739842  22.7429231658001 27.4015020219526  L 16.8711727325245 21.5135759676488  C 16.4613903331408 21.1253610629694  16.2564991334489 20.6400924321202  16.2564991334489 20.0577700751011  C 16.2564991334489 19.4862314654342  16.4883497015213 18.9686115925284  16.9520508376661 18.5049104563836  L 12.8110918544194 14.3639514731369  L 10.7729636048527 16.4020797227036  C 10.6219911419218 16.5530521856345  10.4386674369343 16.6285384170999  10.2229924898902 16.6285384170999  C 10.0073175428461 16.6285384170999  9.82399383785866 16.5530521856345  9.67302137492779 16.4020797227036  C 9.6945888696322 16.423647217408  9.76198729058348 16.4883497015213  9.87521663778163 16.5961871750433  C 9.98844598497978 16.7040246485654  10.0558444059311 16.7741190063547  10.0774119006355 16.8064702484113  C 10.0989793953399 16.8388214904679  10.1528981321009 16.9008280377431  10.2391681109185 16.9924898902369  C 10.3254380897362 17.0841517427306  10.3793568264972 17.156942037358  10.4009243212016 17.210860774119  C 10.422491815906 17.26477951088  10.4548430579626 17.3375698055074  10.4979780473715 17.4292316580012  C 10.5411130367803 17.5208935104949  10.5707683419988 17.6098594261506  10.5869439630272 17.6961294049682  C 10.6031195840555 17.7823993837859  10.6112073945696 17.8794531099557  10.6112073945696 17.9872905834778  C 10.6112073945696 18.3970729828615  10.4602349316387 18.7637203928365  10.158290005777 19.0872328134027  C 10.1259387637204 19.1195840554593  10.0369728480647 19.2166377816291  9.89139225880994 19.3783939919122  C 9.74581166955517 19.5401502021953  9.64336606970923 19.6506836125554  9.5840554592721 19.7099942229925  C 9.52474484883497 19.7693048334296  9.42499518582708 19.8582707490853  9.28480647024841 19.9768919699596  C 9.14461775466975 20.0955131908338  9.02599653379549 20.1790872328134  8.92894280762565 20.2276140958983  C 8.83188908145581 20.2761409589832  8.71326786058155 20.3246678220682  8.57307914500289 20.3731946851531  C 8.43289042942423 20.421721548238  8.29270171384556 20.4459849797805  8.1525129982669 20.4459849797805  C 7.7211631041787 20.4459849797805  7.35451569420374 20.2950125168496  7.052570768342 19.9930675909879  L 0.452917388792605 13.3934142114385  C 0.150972462930869 13.0914692855767  0 12.7248218756018  0 12.2934719815136  C 0 12.1532832659349  0.024263431542461 12.0130945503562  0.072790294627383 11.8729058347776  C 0.121317157712305 11.7327171191989  0.169844020797227 11.6140958983247  0.218370883882149 11.5170421721548  C 0.266897746967071 11.419988445985  0.350471788946659 11.3013672251107  0.469093009820913 11.1611785095321  C 0.587714230695167 11.0209897939534  0.676680146350857 10.9212401309455  0.735990756787984 10.8619295205084  C 0.795301367225111 10.8026189100712  0.905834777585211 10.7001733102253  1.06759098786828 10.5545927209705  C 1.22934719815136 10.4090121317158  1.3264009243212 10.3200462160601  1.35875216637782 10.2876949740035  C 1.68226458694396 9.98575004814173  2.04891199691893 9.83477758521086  2.45869439630272 9.83477758521086  C 2.56653186982476 9.83477758521086  2.66358559599461 9.84286539572501  2.74985557481225 9.85904101675332  C 2.83612555362989 9.87521663778163  2.92509146928558 9.90487194300019  3.01675332177932 9.94800693240901  C 3.10841517427306 9.99114192181783  3.18120546890044 10.0234931638744  3.23512420566147 10.0450606585789  C 3.28904294242249 10.0666281532833  3.36183323704988 10.1205468900443  3.45349508954362 10.2068168688619  C 3.54515694203736 10.2930868476796  3.60716348931254 10.3470055844406  3.63951473136915 10.368573079145  C 3.67186597342577 10.3901405738494  3.7419603312151 10.4575389948007  3.84979780473715 10.5707683419988  C 3.9576352782592 10.683997689197  4.02233776237243 10.7513961101483  4.04390525707683 10.7729636048527  C 3.89293279414597 10.6219911419218  3.81744656268053 10.4386674369343  3.81744656268053 10.2229924898902  C 3.81744656268053 10.0073175428461  3.89293279414597 9.82399383785866  4.04390525707683 9.67302137492779  L 9.67302137492779 4.04390525707683  C 9.82399383785866 3.89293279414596  10.0073175428461 3.81744656268053  10.2229924898902 3.81744656268053  C 10.4386674369343 3.81744656268053  10.6219911419218 3.89293279414596  10.7729636048527 4.04390525707683  C 10.7513961101483 4.02233776237242  10.683997689197 3.95763527825919  10.5707683419988 3.84979780473715  C 10.4575389948007 3.7419603312151  10.3901405738494 3.67186597342577  10.368573079145 3.63951473136915  C 10.3470055844406 3.60716348931254  10.2930868476796 3.54515694203735  10.2068168688619 3.45349508954362  C 10.1205468900443 3.36183323704988  10.0666281532833 3.28904294242249  10.0450606585789 3.23512420566147  C 10.0234931638744 3.18120546890044  9.99114192181783 3.10841517427306  9.94800693240901 3.01675332177932  C 9.90487194300019 2.92509146928557  9.87521663778163 2.83612555362989  9.85904101675332 2.74985557481225  C 9.84286539572501 2.6635855959946  9.83477758521086 2.56653186982476  9.83477758521086 2.45869439630271  C 9.83477758521086 2.04891199691893  9.98575004814173 1.68226458694396  10.2876949740035 1.35875216637782  C 10.3200462160601 1.3264009243212  10.4090121317158 1.22934719815136  10.5545927209705 1.06759098786828  C 10.7001733102253 0.90583477758521  10.8026189100712 0.795301367225107  10.8619295205084 0.735990756787985  C 10.9212401309455 0.676680146350856  11.0209897939534 0.587714230695164  11.1611785095321 0.469093009820913  C 11.3013672251107 0.350471788946655  11.419988445985 0.266897746967072  11.5170421721548 0.21837088388215  C 11.6140958983247 0.169844020797226  11.7327171191989 0.121317157712304  11.8729058347776 0.0727902946273824  C 12.0130945503563 0.0242634315424608  12.1532832659349 0  12.2934719815136 0  C 12.7248218756018 0  13.0914692855767 0.150972462930867  13.3934142114385 0.452917388792607  L 19.9930675909879 7.052570768342  C 20.2950125168496 7.35451569420373  20.4459849797805 7.7211631041787  20.4459849797805 8.1525129982669  C 20.4459849797805 8.29270171384556  20.421721548238 8.43289042942422  20.3731946851531 8.57307914500289  C 20.3246678220682 8.71326786058155  20.2761409589832 8.83188908145581  20.2276140958983 8.92894280762565  C 20.1790872328134 9.02599653379549  20.0955131908338 9.14461775466975  19.9768919699596 9.28480647024841  C 19.8582707490853 9.42499518582707  19.7693048334296 9.52474484883497  19.7099942229925 9.5840554592721  C 19.6506836125554 9.64336606970922  19.5401502021953 9.74581166955517  19.3783939919122 9.89139225880994  C 19.2166377816291 10.0369728480647  19.1195840554593 10.1259387637204  19.0872328134027 10.158290005777  C 18.7637203928365 10.4602349316387  18.3970729828615 10.6112073945696  17.9872905834778 10.6112073945696  C 17.8794531099557 10.6112073945696  17.7823993837859 10.6031195840555  17.6961294049682 10.5869439630272  C 17.6098594261506 10.5707683419988  17.5208935104949 10.5411130367803  17.4292316580012 10.4979780473715  C 17.3375698055074 10.4548430579626  17.26477951088 10.422491815906  17.210860774119 10.4009243212016  C 17.156942037358 10.3793568264972  17.0841517427306 10.3254380897362  16.9924898902369 10.2391681109185  C 16.9008280377431 10.1528981321009  16.8388214904679 10.0989793953399  16.8064702484113 10.0774119006355  C 16.7741190063547 10.0558444059311  16.7040246485654 9.98844598497978  16.5961871750433 9.87521663778163  C 16.4883497015213 9.76198729058348  16.4236472174081 9.6945888696322  16.4020797227036 9.67302137492779  C 16.5530521856345 9.82399383785866  16.6285384170999 10.0073175428461  16.6285384170999 10.2229924898902  C 16.6285384170999 10.4386674369343  16.5530521856345 10.6219911419218  16.4020797227036 10.7729636048527  L 14.3639514731369 12.8110918544194  L 18.5049104563836 16.9520508376661  C 18.9686115925284 16.4883497015213  19.4862314654342 16.2564991334489  20.0577700751011 16.2564991334489  C 20.6185249374158 16.2564991334489  21.1091854419411 16.4559984594647  21.5297515886771 16.8549971114962  L 27.4015020219526 22.7267475447718  Z " fill-rule="nonzero" fill="#9e2d42" stroke="none" transform="matrix(1 0 0 1 78 932 )" />
  </g>
</svg>