<?xml version="1.0" encoding="utf-8"?>
<svg version="1.1" xmlns:xlink="http://www.w3.org/1999/xlink" width="17px" height="17px" xmlns="http://www.w3.org/2000/svg">
  <g transform="matrix(1 0 0 1 -351 -427 )">
    <path d="M 14.01171875 7.205078125  C 14.14453125 7.072265625  14.2109375 6.90625  14.2109375 6.70703125  C 14.2109375 6.50043402777778  14.14453125 6.33072916666667  14.01171875 6.19791666666667  L 13.0045572916667 5.20182291666667  C 12.8643663194444 5.06163194444444  12.6983506944444 4.99153645833333  12.5065104166667 4.99153645833333  C 12.3146701388889 4.99153645833333  12.1486545138889 5.06163194444444  12.0084635416667 5.20182291666667  L 7.49283854166667 9.70638020833333  L 4.99153645833333 7.205078125  C 4.85134548611111 7.06488715277778  4.68532986111111 6.99479166666667  4.49348958333333 6.99479166666667  C 4.30164930555556 6.99479166666667  4.13563368055556 7.06488715277778  3.99544270833333 7.205078125  L 2.98828125 8.201171875  C 2.85546875 8.333984375  2.7890625 8.50368923611111  2.7890625 8.71028645833333  C 2.7890625 8.90950520833333  2.85546875 9.07552083333333  2.98828125 9.20833333333333  L 6.99479166666667 13.21484375  C 7.13498263888889 13.3550347222222  7.30099826388889 13.4251302083333  7.49283854166667 13.4251302083333  C 7.69205729166667 13.4251302083333  7.86176215277778 13.3550347222222  8.001953125 13.21484375  L 14.01171875 7.205078125  Z M 15.8600260416667 4.2333984375  C 16.6200086805556 5.53569878472222  17 6.95789930555555  17 8.5  C 17 10.0421006944444  16.6200086805556 11.4643012152778  15.8600260416667 12.7666015625  C 15.1000434027778 14.0689019097222  14.0689019097222 15.1000434027778  12.7666015625 15.8600260416667  C 11.4643012152778 16.6200086805556  10.0421006944444 17  8.5 17  C 6.95789930555556 17  5.53569878472222 16.6200086805556  4.2333984375 15.8600260416667  C 2.93109809027778 15.1000434027778  1.89995659722222 14.0689019097222  1.13997395833333 12.7666015625  C 0.379991319444444 11.4643012152778  0 10.0421006944444  0 8.5  C 0 6.95789930555555  0.379991319444444 5.53569878472222  1.13997395833333 4.2333984375  C 1.89995659722222 2.93109809027778  2.93109809027778 1.89995659722222  4.2333984375 1.13997395833333  C 5.53569878472222 0.379991319444443  6.95789930555556 0  8.5 0  C 10.0421006944444 0  11.4643012152778 0.379991319444443  12.7666015625 1.13997395833333  C 14.0689019097222 1.89995659722222  15.1000434027778 2.93109809027778  15.8600260416667 4.2333984375  Z " fill-rule="nonzero" fill="#70b603" stroke="none" transform="matrix(1 0 0 1 351 427 )" />
  </g>
</svg>