<?xml version="1.0" encoding="utf-8"?>
<svg version="1.1" xmlns:xlink="http://www.w3.org/1999/xlink" width="7px" height="7px" xmlns="http://www.w3.org/2000/svg">
  <g transform="matrix(1 0 0 1 -1010 -2100 )">
    <path d="M 6.53059895833333 1.7431640625  C 6.84353298611111 2.27940538194444  7 2.86501736111111  7 3.5  C 7 4.13498263888889  6.84353298611111 4.72059461805555  6.53059895833333 5.2568359375  C 6.21766493055556 5.79307725694444  5.79307725694444 6.21766493055556  5.2568359375 6.53059895833333  C 4.72059461805556 6.84353298611111  4.13498263888889 7  3.5 7  C 2.86501736111111 7  2.27940538194444 6.84353298611111  1.7431640625 6.53059895833333  C 1.20692274305556 6.21766493055556  0.782335069444445 5.79307725694444  0.469401041666667 5.2568359375  C 0.156467013888889 4.72059461805555  0 4.13498263888889  0 3.5  C 0 2.86501736111111  0.156467013888889 2.27940538194444  0.469401041666667 1.7431640625  C 0.782335069444445 1.20692274305556  1.20692274305556 0.782335069444444  1.7431640625 0.469401041666666  C 2.27940538194444 0.156467013888888  2.86501736111111 0  3.5 0  C 4.13498263888889 0  4.72059461805556 0.156467013888888  5.2568359375 0.469401041666666  C 5.79307725694444 0.782335069444444  6.21766493055556 1.20692274305556  6.53059895833333 1.7431640625  Z " fill-rule="nonzero" fill="#ffffff" stroke="none" transform="matrix(1 0 0 1 1010 2100 )" />
  </g>
</svg>