<?xml version="1.0" encoding="utf-8"?>
<svg version="1.1" xmlns:xlink="http://www.w3.org/1999/xlink" width="10px" height="9px" xmlns="http://www.w3.org/2000/svg">
  <g transform="matrix(1 0 0 1 -954 -1980 )">
    <path d="M 9.32942708333333 2.2412109375  C 9.77647569444444 2.9306640625  10 3.68359375  10 4.5  C 10 5.31640625  9.77647569444444 6.0693359375  9.32942708333333 6.7587890625  C 8.88237847222222 7.4482421875  8.27582465277778 7.994140625  7.509765625 8.396484375  C 6.74370659722222 8.798828125  5.90711805555556 9  5 9  C 4.09288194444444 9  3.25629340277778 8.798828125  2.490234375 8.396484375  C 1.72417534722222 7.994140625  1.11762152777778 7.4482421875  0.670572916666667 6.7587890625  C 0.223524305555556 6.0693359375  0 5.31640625  0 4.5  C 0 3.68359375  0.223524305555556 2.9306640625  0.670572916666667 2.2412109375  C 1.11762152777778 1.5517578125  1.72417534722222 1.005859375  2.490234375 0.603515625  C 3.25629340277778 0.201171874999999  4.09288194444444 0  5 0  C 5.90711805555556 0  6.74370659722222 0.201171874999999  7.509765625 0.603515625  C 8.27582465277778 1.005859375  8.88237847222222 1.5517578125  9.32942708333333 2.2412109375  Z " fill-rule="nonzero" fill="#ffffff" stroke="none" transform="matrix(1 0 0 1 954 1980 )" />
  </g>
</svg>