<?xml version="1.0" encoding="utf-8"?>
<svg version="1.1" xmlns:xlink="http://www.w3.org/1999/xlink" width="20px" height="21px" xmlns="http://www.w3.org/2000/svg">
  <g transform="matrix(1 0 0 1 -183 -179 )">
    <path d="M 11.5494791666667 5.373046875  C 11.6276041666667 5.455078125  11.6666666666667 5.55989583333333  11.6666666666667 5.6875  L 11.6666666666667 11.8125  C 11.6666666666667 11.9401041666667  11.6276041666667 12.044921875  11.5494791666667 12.126953125  C 11.4713541666667 12.208984375  11.3715277777778 12.25  11.25 12.25  L 7.08333333333333 12.25  C 6.96180555555556 12.25  6.86197916666667 12.208984375  6.78385416666667 12.126953125  C 6.70572916666667 12.044921875  6.66666666666667 11.9401041666667  6.66666666666667 11.8125  L 6.66666666666667 10.9375  C 6.66666666666667 10.8098958333333  6.70572916666667 10.705078125  6.78385416666667 10.623046875  C 6.86197916666667 10.541015625  6.96180555555556 10.5  7.08333333333333 10.5  L 10 10.5  L 10 5.6875  C 10 5.55989583333333  10.0390625 5.455078125  10.1171875 5.373046875  C 10.1953125 5.291015625  10.2951388888889 5.25  10.4166666666667 5.25  L 11.25 5.25  C 11.3715277777778 5.25  11.4713541666667 5.291015625  11.5494791666667 5.373046875  Z M 16.1328125 14.232421875  C 16.7664930555556 13.0930989583333  17.0833333333333 11.8489583333333  17.0833333333333 10.5  C 17.0833333333333 9.15104166666667  16.7664930555556 7.90690104166667  16.1328125 6.767578125  C 15.4991319444444 5.62825520833333  14.6397569444444 4.72591145833333  13.5546875 4.060546875  C 12.4696180555556 3.39518229166667  11.2847222222222 3.0625  10 3.0625  C 8.71527777777778 3.0625  7.53038194444445 3.39518229166667  6.4453125 4.060546875  C 5.36024305555556 4.72591145833333  4.50086805555556 5.62825520833333  3.8671875 6.767578125  C 3.23350694444444 7.90690104166667  2.91666666666667 9.15104166666667  2.91666666666667 10.5  C 2.91666666666667 11.8489583333333  3.23350694444444 13.0930989583333  3.8671875 14.232421875  C 4.50086805555556 15.3717447916667  5.36024305555556 16.2740885416667  6.4453125 16.939453125  C 7.53038194444445 17.6048177083333  8.71527777777778 17.9375  10 17.9375  C 11.2847222222222 17.9375  12.4696180555556 17.6048177083333  13.5546875 16.939453125  C 14.6397569444444 16.2740885416667  15.4991319444444 15.3717447916667  16.1328125 14.232421875  Z M 18.6588541666667 5.2294921875  C 19.5529513888889 6.83821614583333  20 8.59505208333333  20 10.5  C 20 12.4049479166667  19.5529513888889 14.1617838541667  18.6588541666667 15.7705078125  C 17.7647569444444 17.3792317708333  16.5516493055556 18.6529947916667  15.01953125 19.591796875  C 13.4874131944444 20.5305989583333  11.8142361111111 21  10 21  C 8.18576388888889 21  6.51258680555556 20.5305989583333  4.98046875 19.591796875  C 3.44835069444444 18.6529947916667  2.23524305555556 17.3792317708333  1.34114583333333 15.7705078125  C 0.447048611111111 14.1617838541667  0 12.4049479166667  0 10.5  C 0 8.59505208333333  0.447048611111111 6.83821614583333  1.34114583333333 5.2294921875  C 2.23524305555556 3.62076822916667  3.44835069444444 2.34700520833333  4.98046875 1.408203125  C 6.51258680555556 0.469401041666665  8.18576388888889 0  10 0  C 11.8142361111111 0  13.4874131944444 0.469401041666665  15.01953125 1.408203125  C 16.5516493055556 2.34700520833333  17.7647569444444 3.62076822916667  18.6588541666667 5.2294921875  Z " fill-rule="nonzero" fill="#8c8c8c" stroke="none" transform="matrix(1 0 0 1 183 179 )" />
  </g>
</svg>