<?xml version="1.0" encoding="utf-8"?>
<svg version="1.1" xmlns:xlink="http://www.w3.org/1999/xlink" width="12px" height="12px" viewBox="339 647  12 12" xmlns="http://www.w3.org/2000/svg">
  <path d="M 345 647  C 348.36 647  351 649.64  351 653  C 351 656.36  348.36 659  345 659  C 341.64 659  339 656.36  339 653  C 339 649.64  341.64 647  345 647  Z " fill-rule="nonzero" fill="#ffffff" stroke="none" />
  <path d="M 345 647.5  C 348.08 647.5  350.5 649.92  350.5 653  C 350.5 656.08  348.08 658.5  345 658.5  C 341.92 658.5  339.5 656.08  339.5 653  C 339.5 649.92  341.92 647.5  345 647.5  Z " stroke-width="1" stroke="#797979" fill="none" />
  <path d="M 345 656  C 343.32 656  342 654.68  342 653  C 342 651.32  343.32 650  345 650  C 346.68 650  348 651.32  348 653  C 348 654.68  346.68 656  345 656  " fill-rule="nonzero" fill="#797979" stroke="none" />
</svg>