<?xml version="1.0" encoding="utf-8"?>
<svg version="1.1" xmlns:xlink="http://www.w3.org/1999/xlink" width="12px" height="12px" viewBox="450 647  12 12" xmlns="http://www.w3.org/2000/svg">
  <path d="M 456 647  C 459.36 647  462 649.64  462 653  C 462 656.36  459.36 659  456 659  C 452.64 659  450 656.36  450 653  C 450 649.64  452.64 647  456 647  Z " fill-rule="nonzero" fill="#ffffff" stroke="none" />
  <path d="M 456 647.5  C 459.08 647.5  461.5 649.92  461.5 653  C 461.5 656.08  459.08 658.5  456 658.5  C 452.92 658.5  450.5 656.08  450.5 653  C 450.5 649.92  452.92 647.5  456 647.5  Z " stroke-width="1" stroke="#797979" fill="none" />
  <path d="M 456 656  C 454.32 656  453 654.68  453 653  C 453 651.32  454.32 650  456 650  C 457.68 650  459 651.32  459 653  C 459 654.68  457.68 656  456 656  " fill-rule="nonzero" fill="#797979" stroke="none" />
</svg>