<?xml version="1.0" encoding="utf-8"?>
<svg version="1.1" xmlns:xlink="http://www.w3.org/1999/xlink" width="20px" height="20px" xmlns="http://www.w3.org/2000/svg">
  <g transform="matrix(1 0 0 1 -310 -109 )">
    <path d="M 320 109  C 325.6 109  330 113.4  330 119  C 330 124.6  325.6 129  320 129  C 314.4 129  310 124.6  310 119  C 310 113.4  314.4 109  320 109  Z " fill-rule="nonzero" fill="#02a7f0" stroke="none" />
    <path d="M 320 109.5  C 325.32 109.5  329.5 113.68  329.5 119  C 329.5 124.32  325.32 128.5  320 128.5  C 314.68 128.5  310.5 124.32  310.5 119  C 310.5 113.68  314.68 109.5  320 109.5  Z " stroke-width="1" stroke="#02a7f0" fill="none" />
  </g>
</svg>