<?xml version="1.0" encoding="utf-8"?>
<svg version="1.1" xmlns:xlink="http://www.w3.org/1999/xlink" width="12px" height="12px" viewBox="397 304  12 12" xmlns="http://www.w3.org/2000/svg">
  <path d="M 403 304  C 406.36 304  409 306.64  409 310  C 409 313.36  406.36 316  403 316  C 399.64 316  397 313.36  397 310  C 397 306.64  399.64 304  403 304  Z " fill-rule="nonzero" fill="#ffffff" stroke="none" />
  <path d="M 403 304.5  C 406.08 304.5  408.5 306.92  408.5 310  C 408.5 313.08  406.08 315.5  403 315.5  C 399.92 315.5  397.5 313.08  397.5 310  C 397.5 306.92  399.92 304.5  403 304.5  Z " stroke-width="1" stroke="#797979" fill="none" />
  <path d="M 403 313  C 401.32 313  400 311.68  400 310  C 400 308.32  401.32 307  403 307  C 404.68 307  406 308.32  406 310  C 406 311.68  404.68 313  403 313  " fill-rule="nonzero" fill="#797979" stroke="none" />
</svg>