<?xml version="1.0" encoding="utf-8"?>
<svg version="1.1" xmlns:xlink="http://www.w3.org/1999/xlink" width="200px" height="50px" xmlns="http://www.w3.org/2000/svg">
  <g transform="matrix(1 0 0 1 -537 -62 )">
    <path d="M 537.5 91.666149068323  C 537.5 91.666149068323  537.5 67  537.5 67  C 537.5 64.5147186257614  539.514718625761 62.5  542 62.5  C 542 62.5  732 62.5  732 62.5  C 734.485281374239 62.5  736.5 64.5147186257614  736.5 67  C 736.5 67  736.5 91.666149068323  736.5 91.666149068323  C 736.5 94.1514304425615  734.485281374239 96.166149068323  732 96.166149068323  C 732 96.166149068323  650.34974438379 96.166149068323  650.34974438379 96.166149068323  C 650.34974438379 96.166149068323  637.502247100114 110.000649717874  637.502247100114 110.000649717874  C 637.502247100114 110.000649717874  626.724145352064 96.166149068323  626.724145352064 96.166149068323  C 626.724145352064 96.166149068323  542 96.166149068323  542 96.166149068323  C 539.514718625761 96.166149068323  537.5 94.1514304425615  537.5 91.666149068323  Z " fill-rule="nonzero" fill="#ffffff" stroke="none" />
    <path d="M 537 91.666149068323  C 537 91.666149068323  537 67  537 67  C 537 64.238576250846  539.238576250846 62  542 62  C 542 62  732 62  732 62  C 734.761423749154 62  737 64.238576250846  737 67  C 737 67  737 91.666149068323  737 91.666149068323  C 737 94.4275728174769  734.761423749154 96.666149068323  732 96.666149068323  C 732 96.666149068323  650.567765567766 96.666149068323  650.567765567766 96.666149068323  C 650.567765567766 96.666149068323  637.468864468864 110.771367521367  637.468864468864 110.771367521367  C 637.468864468864 110.771367521367  626.479853479854 96.666149068323  626.479853479854 96.666149068323  C 626.479853479854 96.666149068323  542 96.666149068323  542 96.666149068323  C 539.238576250846 96.666149068323  537 94.4275728174769  537 91.666149068323  Z M 538 91.666149068323  C 538 93.8752880676462  539.790861000677 95.666149068323  542 95.666149068323  C 542 95.666149068323  626.968437224273 95.666149068323  626.968437224273 95.666149068323  C 626.968437224273 95.666149068323  637.535629731363 109.22993191438  637.535629731363 109.22993191438  C 637.535629731363 109.22993191438  650.131723199814 95.666149068323  650.131723199814 95.666149068323  C 650.131723199814 95.666149068323  732 95.666149068323  732 95.666149068323  C 734.209138999323 95.666149068323  736 93.8752880676462  736 91.666149068323  C 736 91.666149068323  736 67  736 67  C 736 64.7908610006768  734.209138999323 63  732 63  C 732 63  542 63  542 63  C 539.790861000677 63  538 64.7908610006768  538 67  C 538 67  538 91.666149068323  538 91.666149068323  Z " fill-rule="nonzero" fill="#d7d7d7" stroke="none" />
  </g>
</svg>