<?xml version="1.0" encoding="utf-8"?>
<svg version="1.1" xmlns:xlink="http://www.w3.org/1999/xlink" width="17px" height="16px" xmlns="http://www.w3.org/2000/svg">
  <g transform="matrix(1 0 0 1 -339 -152 )">
    <path d="M 16.3961666666667 15.5808333333333  C 16.3961666666667 15.3506666666667  16.2096666666666 15.1641666666667  15.9795 15  L 0.513500000000022 15  C 0.283333333333303 15.1641666666667  0.0968333333333362 15.3506666666667  0.0968333333333362 15.5808333333333  C 0.0968333333333362 15.811  0.283333333333303 15.9975  0.513500000000022 16  L 15.9795 16  C 16.2096666666667 15.9975  16.3961666666667 15.811  16.3961666666667 15.5808333333333  Z M 0.8511666666667 13.86  C 0.927833333333297 13.9263333333333  1.02500000000003 13.9616666666666  1.12399999999997 13.9616666666666  C 1.16216666666662 13.9616666666666  1.20066666666668 13.9565  1.23849999999999 13.9456666666667  L 3.80250000000001 13.2133333333333  C 3.87066666666669 13.1938333333333  3.93266666666665 13.1573333333334  3.98266666666666 13.1071666666667  L 12.0413333333333 5.04866666666663  C 12.2041666666667 4.88599999999997  12.2041666666667 4.62216666666669  12.0413333333333 4.45949999999999  C 11.8785 4.29666666666665  11.6148333333334 4.29666666666665  11.4521666666667 4.45949999999999  L 4.48166666666668 11.4296666666667  L 3.12800000000004 10.0758333333333  C 3.07999999999998 10.0278333333333  3.02283333333332 9.99583333333334  2.96233333333333 9.97599999999997  L 9.78216666666668 3.15616666666668  C 9.94499999999999 2.99350000000001  9.94499999999999 2.72966666666667  9.78216666666668 2.56700000000001  C 9.61933333333337 2.40416666666667  9.35566666666671 2.40416666666667  9.19300000000004 2.56700000000001  L 1.19566666666663 10.5643333333333  C 1.13116666666667 10.6286666666666  1.08966666666669 10.7125  1.07749999999999 10.8026666666667  L 0.711166666666657 13.4886666666667  C 0.692166666666651 13.6281666666667  0.744833333333304 13.7676666666667  0.8511666666667 13.86  Z M 1.62316666666669 12.969  L 1.88416666666666 11.0541666666666  L 2.43899999999996 10.4995  C 2.45866666666672 10.5598333333333  2.49083333333334 10.617  2.5386666666667 10.665  L 3.89249999999998 12.019  L 3.46983333333338 12.4416666666667  L 1.62316666666669 12.969  Z M 10.2338333333334 2.3295  L 12.2531666666667 4.19533333333334  C 12.3331666666667 4.26933333333335  12.4346666666667 4.30600000000001  12.5356666666667 4.30600000000001  C 12.6478333333333 4.30600000000001  12.7596666666667 4.261  12.8418333333333 4.17216666666667  L 14.3123333333334 2.58116666666666  C 14.3873333333333 2.5  14.427 2.39233333333331  14.4226666666667 2.28199999999998  C 14.4183333333334 2.17166666666665  14.3703333333334 2.06733333333335  14.289 1.99233333333333  L 12.2691666666667 0.126333333333349  C 12.1001666666667 -0.0298333333333289  11.8363333333334 -0.0193333333333499  11.6805 0.149666666666661  L 10.2105 1.74066666666667  C 10.0541666666667 1.90966666666668  10.0646666666667 2.17333333333335  10.2338333333334 2.3295  Z M 11.1053333333334 2  L 12.0098333333333 1.02116666666666  L 13.4175 2.32150000000001  L 12.5125 3.3005  L 11.1053333333334 2  Z " fill-rule="nonzero" fill="#000000" stroke="none" transform="matrix(1 0 0 1 339 152 )" />
  </g>
</svg>