<?xml version="1.0" encoding="utf-8"?>
<svg version="1.1" xmlns:xlink="http://www.w3.org/1999/xlink" width="56px" height="24px" xmlns="http://www.w3.org/2000/svg">
  <defs>
    <mask fill="white" id="clip110">
      <path d="M 2.24 24  C 0.9856 24  0 18.72  0 12  C 0 5.28  0.9856 0  2.24 0  L 26.1333333333333 0  L 53.76 0  C 55.0144 0  56 5.28  56 12  C 56 18.72  55.0144 24  53.76 24  L 2.24 24  Z " fill-rule="evenodd" />
    </mask>
  </defs>
  <g transform="matrix(1 0 0 1 -271 -152 )">
    <path d="M 2.24 24  C 0.9856 24  0 18.72  0 12  C 0 5.28  0.9856 0  2.24 0  L 26.1333333333333 0  L 53.76 0  C 55.0144 0  56 5.28  56 12  C 56 18.72  55.0144 24  53.76 24  L 2.24 24  Z " fill-rule="nonzero" fill="#ffdcde" stroke="none" transform="matrix(1 0 0 1 271 152 )" />
    <path d="M 2.24 24  C 0.9856 24  0 18.72  0 12  C 0 5.28  0.9856 0  2.24 0  L 26.1333333333333 0  L 53.76 0  C 55.0144 0  56 5.28  56 12  C 56 18.72  55.0144 24  53.76 24  L 2.24 24  Z " stroke-width="2" stroke="#ee3143" fill="none" transform="matrix(1 0 0 1 271 152 )" mask="url(#clip110)" />
  </g>
</svg>