<?xml version="1.0" encoding="utf-8"?>
<svg version="1.1" xmlns:xlink="http://www.w3.org/1999/xlink" width="16px" height="20px" xmlns="http://www.w3.org/2000/svg">
  <g transform="matrix(1 0 0 1 -9 -33 )">
    <path d="M 15.8970442921405 7.83401293676005  C 15.8970442921405 3.55405065117938  12.3809986366932 0.0660688022707546  8 0  C 3.6232250640873 0.0716636228939221  0.11356741798164 3.55791895855364  0.11356741798164 7.83384604446814  C 0.11356741798164 7.87836539970362  0.113955870447174 7.92288394639248  0.114732733050848 7.96739683360927  C 0.114732733050848 12.368823209851  6.29986962394068 19.1034131312086  6.29986962394068 19.1034131312086  C 6.6900469120584 19.6494462137488  7.32873536146373 19.9748068607322  8.01043024364406 19.9748068607322  C 8.69212512582441 19.9748068607322  9.33081357522973 19.6494462137488  9.72099086334746 19.1034131312086  C 9.72099086334746 19.1034131312086  15.8956975105932 12.368823209851  15.8956975105932 7.97758531663907  C 15.8965953461125 7.92973287931158  15.8970442921405 7.88187341033288  15.8970442921405 7.83401293676005  Z M 8 11.3295975527732  C 5.94927383297662 11.3295975527732  4.28683180614407 9.70568895040363  4.28683180614407 7.70249617135761  C 4.28683180614407 5.6993033923116  5.94927383297662 4.07539478994205  8 4.07539478994205  C 10.0507261670234 4.07539478994205  11.7131681938559 5.6993033923116  11.7131681938559 7.70249617135761  C 11.7131681938559 9.70568895040363  10.0507261670234 11.3295975527732  8 11.3295975527732  Z " fill-rule="nonzero" fill="#555555" stroke="none" transform="matrix(1 0 0 1 9 33 )" />
  </g>
</svg>