<?xml version="1.0" encoding="utf-8"?>
<svg version="1.1" xmlns:xlink="http://www.w3.org/1999/xlink" width="23px" height="24px" xmlns="http://www.w3.org/2000/svg">
  <g transform="matrix(1 0 0 1 -341 -558 )">
    <path d="M 17.923828125 13.703125  C 18.1134982638889 13.5052083333333  18.2083333333333 13.2708333333333  18.2083333333333 13  L 18.2083333333333 11  C 18.2083333333333 10.7291666666667  18.1134982638889 10.4947916666667  17.923828125 10.296875  C 17.7341579861111 10.0989583333333  17.5095486111111 10  17.25 10  L 13.4166666666667 10  L 13.4166666666667 6  C 13.4166666666667 5.72916666666666  13.3218315972222 5.49479166666666  13.1321614583333 5.296875  C 12.9424913194444 5.09895833333333  12.7178819444444 5  12.4583333333333 5  L 10.5416666666667 5  C 10.2821180555556 5  10.0575086805556 5.09895833333333  9.86783854166667 5.296875  C 9.67816840277778 5.49479166666666  9.58333333333333 5.72916666666666  9.58333333333333 6  L 9.58333333333333 10  L 5.75 10  C 5.49045138888889 10  5.26584201388889 10.0989583333333  5.076171875 10.296875  C 4.88650173611111 10.4947916666667  4.79166666666667 10.7291666666667  4.79166666666667 11  L 4.79166666666667 13  C 4.79166666666667 13.2708333333333  4.88650173611111 13.5052083333333  5.076171875 13.703125  C 5.26584201388889 13.9010416666667  5.49045138888889 14  5.75 14  L 9.58333333333333 14  L 9.58333333333333 18  C 9.58333333333333 18.2708333333333  9.67816840277778 18.5052083333333  9.86783854166667 18.703125  C 10.0575086805556 18.9010416666667  10.2821180555556 19  10.5416666666667 19  L 12.4583333333333 19  C 12.7178819444444 19  12.9424913194444 18.9010416666667  13.1321614583333 18.703125  C 13.3218315972222 18.5052083333333  13.4166666666667 18.2708333333333  13.4166666666667 18  L 13.4166666666667 14  L 17.25 14  C 17.5095486111111 14  17.7341579861111 13.9010416666667  17.923828125 13.703125  Z M 21.4576822916667 5.9765625  C 22.4858940972222 7.81510416666666  23 9.82291666666666  23 12  C 23 14.1770833333333  22.4858940972222 16.1848958333333  21.4576822916667 18.0234375  C 20.4294704861111 19.8619791666667  19.0343967013889 21.3177083333333  17.2724609375 22.390625  C 15.5105251736111 23.4635416666667  13.5863715277778 24  11.5 24  C 9.41362847222222 24  7.48947482638889 23.4635416666667  5.7275390625 22.390625  C 3.96560329861111 21.3177083333333  2.57052951388889 19.8619791666667  1.54231770833333 18.0234375  C 0.514105902777778 16.1848958333333  0 14.1770833333333  0 12  C 0 9.82291666666666  0.514105902777778 7.81510416666666  1.54231770833333 5.9765625  C 2.57052951388889 4.13802083333333  3.96560329861111 2.68229166666666  5.7275390625 1.609375  C 7.48947482638889 0.536458333333331  9.41362847222222 0  11.5 0  C 13.5863715277778 0  15.5105251736111 0.536458333333331  17.2724609375 1.609375  C 19.0343967013889 2.68229166666666  20.4294704861111 4.13802083333333  21.4576822916667 5.9765625  Z " fill-rule="nonzero" fill="#419efb" stroke="none" transform="matrix(1 0 0 1 341 558 )" />
  </g>
</svg>