<?xml version="1.0" encoding="utf-8"?>
<svg version="1.1" xmlns:xlink="http://www.w3.org/1999/xlink" width="21px" height="22px" xmlns="http://www.w3.org/2000/svg">
  <g transform="matrix(1 0 0 1 -12 -266 )">
    <path d="M 16.365234375 12.5611979166667  C 16.5384114583333 12.3797743055556  16.625 12.1649305555556  16.625 11.9166666666667  L 16.625 10.0833333333333  C 16.625 9.83506944444444  16.5384114583333 9.62022569444444  16.365234375 9.43880208333333  C 16.1920572916667 9.25737847222222  15.9869791666667 9.16666666666667  15.75 9.16666666666667  L 5.25 9.16666666666667  C 5.01302083333333 9.16666666666667  4.80794270833333 9.25737847222222  4.634765625 9.43880208333333  C 4.46158854166667 9.62022569444444  4.375 9.83506944444444  4.375 10.0833333333333  L 4.375 11.9166666666667  C 4.375 12.1649305555556  4.46158854166667 12.3797743055556  4.634765625 12.5611979166667  C 4.80794270833333 12.7426215277778  5.01302083333333 12.8333333333333  5.25 12.8333333333333  L 15.75 12.8333333333333  C 15.9869791666667 12.8333333333333  16.1920572916667 12.7426215277778  16.365234375 12.5611979166667  Z M 19.591796875 5.478515625  C 20.5305989583333 7.16384548611111  21 9.00434027777778  21 11  C 21 12.9956597222222  20.5305989583333 14.8361545138889  19.591796875 16.521484375  C 18.6529947916667 18.2068142361111  17.3792317708333 19.5412326388889  15.7705078125 20.5247395833333  C 14.1617838541667 21.5082465277778  12.4049479166667 22  10.5 22  C 8.59505208333333 22  6.83821614583333 21.5082465277778  5.2294921875 20.5247395833333  C 3.62076822916667 19.5412326388889  2.34700520833333 18.2068142361111  1.408203125 16.521484375  C 0.469401041666667 14.8361545138889  0 12.9956597222222  0 11  C 0 9.00434027777778  0.469401041666667 7.16384548611111  1.408203125 5.478515625  C 2.34700520833333 3.79318576388889  3.62076822916667 2.45876736111111  5.2294921875 1.47526041666667  C 6.83821614583333 0.49175347222222  8.59505208333333 0  10.5 0  C 12.4049479166667 0  14.1617838541667 0.49175347222222  15.7705078125 1.47526041666667  C 17.3792317708333 2.45876736111111  18.6529947916667 3.79318576388889  19.591796875 5.478515625  Z " fill-rule="nonzero" fill="#d9001b" stroke="none" transform="matrix(1 0 0 1 12 266 )" />
  </g>
</svg>