<?xml version="1.0" encoding="utf-8"?>
<svg version="1.1" xmlns:xlink="http://www.w3.org/1999/xlink" width="28px" height="27px" xmlns="http://www.w3.org/2000/svg">
  <g transform="matrix(1 0 0 1 -367 -274 )">
    <path d="M 18.5026041666667 22.341796875  C 18.6119791666667 22.236328125  18.6666666666667 22.1015625  18.6666666666667 21.9375  L 18.6666666666667 19.125  C 18.6666666666667 18.9609375  18.6119791666667 18.826171875  18.5026041666667 18.720703125  C 18.3932291666667 18.615234375  18.2534722222222 18.5625  18.0833333333333 18.5625  L 16.3333333333333 18.5625  L 16.3333333333333 9.5625  C 16.3333333333333 9.3984375  16.2786458333333 9.263671875  16.1692708333333 9.158203125  C 16.0598958333333 9.052734375  15.9201388888889 9  15.75 9  L 9.91666666666667 9  C 9.74652777777778 9  9.60677083333333 9.052734375  9.49739583333333 9.158203125  C 9.38802083333333 9.263671875  9.33333333333333 9.3984375  9.33333333333333 9.5625  L 9.33333333333333 12.375  C 9.33333333333333 12.5390625  9.38802083333333 12.673828125  9.49739583333333 12.779296875  C 9.60677083333333 12.884765625  9.74652777777778 12.9375  9.91666666666667 12.9375  L 11.6666666666667 12.9375  L 11.6666666666667 18.5625  L 9.91666666666667 18.5625  C 9.74652777777778 18.5625  9.60677083333333 18.615234375  9.49739583333333 18.720703125  C 9.38802083333333 18.826171875  9.33333333333333 18.9609375  9.33333333333333 19.125  L 9.33333333333333 21.9375  C 9.33333333333333 22.1015625  9.38802083333333 22.236328125  9.49739583333333 22.341796875  C 9.60677083333333 22.447265625  9.74652777777778 22.5  9.91666666666667 22.5  L 18.0833333333333 22.5  C 18.2534722222222 22.5  18.3932291666667 22.447265625  18.5026041666667 22.341796875  Z M 16.1692708333333 6.591796875  C 16.2786458333333 6.486328125  16.3333333333333 6.3515625  16.3333333333333 6.1875  L 16.3333333333333 3.375  C 16.3333333333333 3.2109375  16.2786458333333 3.076171875  16.1692708333333 2.970703125  C 16.0598958333333 2.865234375  15.9201388888889 2.8125  15.75 2.8125  L 12.25 2.8125  C 12.0798611111111 2.8125  11.9401041666667 2.865234375  11.8307291666667 2.970703125  C 11.7213541666667 3.076171875  11.6666666666667 3.2109375  11.6666666666667 3.375  L 11.6666666666667 6.1875  C 11.6666666666667 6.3515625  11.7213541666667 6.486328125  11.8307291666667 6.591796875  C 11.9401041666667 6.697265625  12.0798611111111 6.75  12.25 6.75  L 15.75 6.75  C 15.9201388888889 6.75  16.0598958333333 6.697265625  16.1692708333333 6.591796875  Z M 26.1223958333333 6.7236328125  C 27.3741319444444 8.7919921875  28 11.05078125  28 13.5  C 28 15.94921875  27.3741319444444 18.2080078125  26.1223958333333 20.2763671875  C 24.8706597222222 22.3447265625  23.1723090277778 23.982421875  21.02734375 25.189453125  C 18.8823784722222 26.396484375  16.5399305555556 27  14 27  C 11.4600694444444 27  9.11762152777778 26.396484375  6.97265625 25.189453125  C 4.82769097222222 23.982421875  3.12934027777778 22.3447265625  1.87760416666667 20.2763671875  C 0.625868055555555 18.2080078125  0 15.94921875  0 13.5  C 0 11.05078125  0.625868055555555 8.7919921875  1.87760416666667 6.7236328125  C 3.12934027777778 4.6552734375  4.82769097222222 3.017578125  6.97265625 1.810546875  C 9.11762152777778 0.603515624999998  11.4600694444444 0  14 0  C 16.5399305555556 0  18.8823784722222 0.603515624999998  21.02734375 1.810546875  C 23.1723090277778 3.017578125  24.8706597222222 4.6552734375  26.1223958333333 6.7236328125  Z " fill-rule="nonzero" fill="#f21e27" stroke="none" transform="matrix(1 0 0 1 367 274 )" />
  </g>
</svg>