<?xml version="1.0" encoding="utf-8"?>
<svg version="1.1" xmlns:xlink="http://www.w3.org/1999/xlink" width="8px" height="13px" xmlns="http://www.w3.org/2000/svg">
  <g transform="matrix(1 0 0 1 -7 -58 )">
    <path d="M 8 1.85483870967742  C 8 1.99462365591398  7.95109395109395 2.11559139784946  7.85328185328185 2.21774193548387  L 3.75289575289575 6.5  L 7.85328185328185 10.7822580645161  C 7.95109395109395 10.8844086021505  8 11.005376344086  8 11.1451612903226  C 8 11.2849462365591  7.95109395109395 11.4059139784946  7.85328185328185 11.508064516129  L 6.57142857142857 12.8467741935484  C 6.47361647361647 12.9489247311828  6.35778635778636 13  6.22393822393822 13  C 6.09009009009009 13  5.97425997425997 12.9489247311828  5.87644787644788 12.8467741935484  L 0.146718146718147 6.86290322580645  C 0.048906048906049 6.76075268817204  0 6.63978494623656  0 6.5  C 0 6.36021505376344  0.048906048906049 6.23924731182796  0.146718146718147 6.13709677419355  L 5.87644787644788 0.153225806451613  C 5.97425997425997 0.0510752688172037  6.09009009009009 0  6.22393822393822 0  C 6.35778635778636 0  6.47361647361647 0.0510752688172037  6.57142857142857 0.153225806451613  L 7.85328185328185 1.49193548387097  C 7.95109395109395 1.59408602150538  8 1.71505376344086  8 1.85483870967742  Z " fill-rule="nonzero" fill="#419efb" stroke="none" transform="matrix(1 0 0 1 7 58 )" />
  </g>
</svg>