<?xml version="1.0" encoding="utf-8"?>
<svg version="1.1" xmlns:xlink="http://www.w3.org/1999/xlink" width="9px" height="11px" xmlns="http://www.w3.org/2000/svg">
  <g transform="matrix(1 0 0 1 -645 -102 )">
    <path d="M 5.80864864864865 8.353125  C 5.88648648648649 8.421875  5.92540540540541 8.50208333333333  5.92540540540541 8.59375  L 5.92540540540541 10.65625  C 5.92540540540541 10.7479166666667  5.88648648648649 10.828125  5.80864864864865 10.896875  C 5.73081081081081 10.965625  5.64 11  5.53621621621622 11  L 3.20108108108108 11  C 3.0972972972973 11  3.00648648648649 10.965625  2.92864864864865 10.896875  C 2.85081081081081 10.828125  2.81189189189189 10.7479166666667  2.81189189189189 10.65625  L 2.81189189189189 8.59375  C 2.81189189189189 8.50208333333333  2.85081081081081 8.421875  2.92864864864865 8.353125  C 3.00648648648649 8.284375  3.0972972972973 8.25  3.20108108108108 8.25  L 5.53621621621622 8.25  C 5.64 8.25  5.73081081081081 8.284375  5.80864864864865 8.353125  Z M 8.60108108108108 2.075390625  C 8.86702702702703 2.50794270833333  9 2.96197916666667  9 3.4375  C 9 3.746875  8.94972972972973 4.03619791666667  8.84918918918919 4.30546875  C 8.74864864864865 4.57473958333333  8.63513513513514 4.79388020833333  8.50864864864865 4.962890625  C 8.38216216216216 5.13190104166667  8.20378378378378 5.30234375  7.97351351351351 5.47421875  C 7.74324324324324 5.64609375  7.55675675675676 5.770703125  7.41405405405405 5.848046875  C 7.27135135135135 5.925390625  7.07351351351351 6.02708333333333  6.82054054054054 6.153125  C 6.5545945945946 6.28489583333333  6.33243243243243 6.47109375  6.15405405405405 6.71171875  C 5.97567567567568 6.95234375  5.88648648648649 7.14427083333333  5.88648648648649 7.2875  C 5.88648648648649 7.38489583333333  5.84756756756757 7.47799479166667  5.76972972972973 7.566796875  C 5.69189189189189 7.65559895833333  5.60108108108108 7.7  5.4972972972973 7.7  L 3.16216216216216 7.7  C 3.06486486486487 7.7  2.98216216216216 7.64700520833333  2.91405405405405 7.541015625  C 2.84594594594595 7.43502604166667  2.81189189189189 7.32760416666667  2.81189189189189 7.21875  L 2.81189189189189 6.83203125  C 2.81189189189189 6.35651041666667  3.0227027027027 5.908203125  3.44432432432432 5.487109375  C 3.86594594594595 5.066015625  4.32972972972973 4.75520833333333  4.83567567567568 4.5546875  C 5.21837837837838 4.4  5.49081081081081 4.23958333333333  5.65297297297297 4.0734375  C 5.81513513513514 3.90729166666667  5.89621621621622 3.68958333333333  5.89621621621622 3.4203125  C 5.89621621621622 3.1796875  5.74540540540541 2.96770833333333  5.44378378378378 2.784375  C 5.14216216216216 2.60104166666667  4.79351351351351 2.509375  4.39783783783784 2.509375  C 3.97621621621622 2.509375  3.62594594594595 2.59244791666667  3.34702702702703 2.75859375  C 3.12 2.90182291666667  2.77297297297297 3.23125  2.30594594594595 3.746875  C 2.22162162162162 3.83854166666667  2.12108108108108 3.884375  2.00432432432432 3.884375  C 1.92648648648649 3.884375  1.84540540540541 3.86145833333333  1.76108108108108 3.815625  L 0.165405405405405 2.74140625  C 0.0810810810810812 2.68411458333333  0.030810810810811 2.6125  0.0145945945945946 2.5265625  C -0.00162162162162153 2.440625  0.0162162162162163 2.36041666666667  0.0681081081081081 2.2859375  C 1.10594594594595 0.761979166666665  2.61081081081081 0  4.5827027027027 0  C 5.10162162162162 0  5.62378378378378 0.0888020833333332  6.14918918918919 0.26640625  C 6.67459459459459 0.444010416666666  7.14810810810811 0.681770833333332  7.56972972972973 0.9796875  C 7.99135135135135 1.27760416666666  8.33513513513514 1.64283854166666  8.60108108108108 2.075390625  Z " fill-rule="nonzero" fill="#7f7f7f" stroke="none" transform="matrix(1 0 0 1 645 102 )" />
  </g>
</svg>