<?xml version="1.0" encoding="utf-8"?>
<svg version="1.1" xmlns:xlink="http://www.w3.org/1999/xlink" width="25px" height="19px" xmlns="http://www.w3.org/2000/svg">
  <g transform="matrix(1 0 0 1 -622 -113 )">
    <path d="M 12.39013671875 10.9534505208333  C 12.46337890625 11.3946397569444  12.5 11.8791232638889  12.5 12.4069010416667  C 12.5 12.9346788194444  12.3494466145833 13.3738064236111  12.04833984375 13.7242838541667  C 11.7472330729167 14.0747612847222  11.376953125 14.25  10.9375 14.25  L 4.6875 14.25  C 4.248046875 14.25  3.87776692708333 14.0747612847222  3.57666015625 13.7242838541667  C 3.27555338541667 13.3738064236111  3.125 12.9346788194444  3.125 12.4069010416667  C 3.125 11.8791232638889  3.16162109375 11.3946397569444  3.23486328125 10.9534505208333  C 3.30810546875 10.5122612847222  3.42814127604167 10.0875651041667  3.594970703125 9.67936197916667  C 3.76180013020833 9.27115885416667  4.00797526041667 8.94954427083333  4.33349609375 8.71451822916667  C 4.65901692708333 8.4794921875  5.0537109375 8.36197916666667  5.517578125 8.36197916666667  C 5.56640625 8.39496527777778  5.6884765625 8.46918402777778  5.8837890625 8.58463541666667  C 6.0791015625 8.70008680555555  6.231689453125 8.78873697916667  6.341552734375 8.8505859375  C 6.451416015625 8.91243489583333  6.59586588541667 8.98459201388889  6.77490234375 9.06705729166667  C 6.95393880208333 9.14952256944444  7.12890625 9.20930989583333  7.2998046875 9.24641927083333  C 7.470703125 9.28352864583333  7.6416015625 9.30208333333333  7.8125 9.30208333333333  C 7.9833984375 9.30208333333333  8.154296875 9.28352864583333  8.3251953125 9.24641927083333  C 8.49609375 9.20930989583333  8.67106119791667 9.14952256944444  8.85009765625 9.06705729166667  C 9.02913411458333 8.98459201388889  9.173583984375 8.91243489583333  9.283447265625 8.8505859375  C 9.393310546875 8.78873697916667  9.5458984375 8.70008680555555  9.7412109375 8.58463541666667  C 9.9365234375 8.46918402777778  10.05859375 8.39496527777778  10.107421875 8.36197916666667  C 10.5712890625 8.36197916666667  10.9659830729167 8.4794921875  11.29150390625 8.71451822916667  C 11.6170247395833 8.94954427083333  11.8631998697917 9.27115885416667  12.030029296875 9.67936197916667  C 12.1968587239583 10.0875651041667  12.31689453125 10.5122612847222  12.39013671875 10.9534505208333  Z M 9.771728515625 3.9892578125  C 10.3129069010417 4.53765190972222  10.58349609375 5.19943576388889  10.58349609375 5.974609375  C 10.58349609375 6.74978298611111  10.3129069010417 7.41156684027778  9.771728515625 7.9599609375  C 9.23055013020833 8.50835503472222  8.57747395833333 8.78255208333333  7.8125 8.78255208333333  C 7.04752604166667 8.78255208333333  6.39444986979167 8.50835503472222  5.853271484375 7.9599609375  C 5.31209309895833 7.41156684027778  5.04150390625 6.74978298611111  5.04150390625 5.974609375  C 5.04150390625 5.19943576388889  5.31209309895833 4.53765190972222  5.853271484375 3.9892578125  C 6.39444986979167 3.44086371527778  7.04752604166667 3.16666666666667  7.8125 3.16666666666667  C 8.57747395833333 3.16666666666667  9.23055013020833 3.44086371527778  9.771728515625 3.9892578125  Z M 21.76513671875 11.1946614583333  C 21.83837890625 11.2688802083333  21.875 11.3637152777778  21.875 11.4791666666667  L 21.875 12.2708333333333  C 21.875 12.3862847222222  21.83837890625 12.4811197916667  21.76513671875 12.5553385416667  C 21.69189453125 12.6295572916667  21.5983072916667 12.6666666666667  21.484375 12.6666666666667  L 14.453125 12.6666666666667  C 14.3391927083333 12.6666666666667  14.24560546875 12.6295572916667  14.17236328125 12.5553385416667  C 14.09912109375 12.4811197916667  14.0625 12.3862847222222  14.0625 12.2708333333333  L 14.0625 11.4791666666667  C 14.0625 11.3637152777778  14.09912109375 11.2688802083333  14.17236328125 11.1946614583333  C 14.24560546875 11.1204427083333  14.3391927083333 11.0833333333333  14.453125 11.0833333333333  L 21.484375 11.0833333333333  C 21.5983072916667 11.0833333333333  21.69189453125 11.1204427083333  21.76513671875 11.1946614583333  Z M 21.746826171875 8.04654947916667  C 21.832275390625 8.13313802083333  21.875 8.23828125  21.875 8.36197916666667  L 21.875 9.0546875  C 21.875 9.17838541666667  21.832275390625 9.28352864583333  21.746826171875 9.3701171875  C 21.661376953125 9.45670572916667  21.5576171875 9.5  21.435546875 9.5  L 14.501953125 9.5  C 14.3798828125 9.5  14.276123046875 9.45670572916667  14.190673828125 9.3701171875  C 14.105224609375 9.28352864583333  14.0625 9.17838541666667  14.0625 9.0546875  L 14.0625 8.36197916666667  C 14.0625 8.23828125  14.105224609375 8.13313802083333  14.190673828125 8.04654947916667  C 14.276123046875 7.9599609375  14.3798828125 7.91666666666667  14.501953125 7.91666666666667  L 21.435546875 7.91666666666667  C 21.5576171875 7.91666666666667  21.661376953125 7.9599609375  21.746826171875 8.04654947916667  Z M 21.76513671875 4.861328125  C 21.83837890625 4.935546875  21.875 5.03038194444444  21.875 5.14583333333333  L 21.875 5.9375  C 21.875 6.05295138888889  21.83837890625 6.14778645833333  21.76513671875 6.22200520833333  C 21.69189453125 6.29622395833333  21.5983072916667 6.33333333333333  21.484375 6.33333333333333  L 14.453125 6.33333333333333  C 14.3391927083333 6.33333333333333  14.24560546875 6.29622395833333  14.17236328125 6.22200520833333  C 14.09912109375 6.14778645833333  14.0625 6.05295138888889  14.0625 5.9375  L 14.0625 5.14583333333333  C 14.0625 5.03038194444444  14.09912109375 4.935546875  14.17236328125 4.861328125  C 14.24560546875 4.787109375  14.3391927083333 4.75  14.453125 4.75  L 21.484375 4.75  C 21.5983072916667 4.75  21.69189453125 4.787109375  21.76513671875 4.861328125  Z M 23.321533203125 17.2991536458333  C 23.3988444010417 17.2208116319444  23.4375 17.1280381944444  23 17.0208333333333  L 23 1.97916666666667  C 23.4375 1.87196180555555  23.3988444010417 1.77918836805555  23.321533203125 1.70084635416667  C 23.2442220052083 1.62250434027778  23.1526692708333 1.58333333333333  23.046875 1.58333333333333  L 1.953125 1.58333333333333  C 1.84733072916667 1.58333333333333  1.75577799479167 1.62250434027778  1.678466796875 1.70084635416667  C 1.60115559895833 1.77918836805555  1.5625 1.87196180555555  2 1.97916666666667  L 2 17.0208333333333  C 1.5625 17.1280381944444  1.60115559895833 17.2208116319444  1.678466796875 17.2991536458333  C 1.75577799479167 17.3774956597222  1.84733072916667 17.4166666666667  1.953125 17.4166666666667  L 6.25 17.4166666666667  L 6.25 16.2291666666667  C 6.25 16.1137152777778  6.28662109375 16.0188802083333  6.35986328125 15.9446614583333  C 6.43310546875 15.8704427083333  6.52669270833333 15.8333333333333  6.640625 15.8333333333333  L 7.421875 15.8333333333333  C 7.53580729166667 15.8333333333333  7.62939453125 15.8704427083333  7.70263671875 15.9446614583333  C 7.77587890625 16.0188802083333  7.8125 16.1137152777778  7.8125 16.2291666666667  L 7.8125 17.4166666666667  L 17.1875 17.4166666666667  L 17.1875 16.2291666666667  C 17.1875 16.1137152777778  17.22412109375 16.0188802083333  17.29736328125 15.9446614583333  C 17.37060546875 15.8704427083333  17.4641927083333 15.8333333333333  17.578125 15.8333333333333  L 18.359375 15.8333333333333  C 18.4733072916667 15.8333333333333  18.56689453125 15.8704427083333  18.64013671875 15.9446614583333  C 18.71337890625 16.0188802083333  18.75 16.1137152777778  18.75 16.2291666666667  L 18.75 17.4166666666667  L 23.046875 17.4166666666667  C 23.1526692708333 17.4166666666667  23.2442220052083 17.3774956597222  23.321533203125 17.2991536458333  Z M 24.42626953125 0.581380208333334  C 24.8087565104167 0.968967013888888  25 1.43489583333333  25 1.97916666666667  L 25 17.0208333333333  C 25 17.5651041666667  24.8087565104167 18.0310329861111  24.42626953125 18.4186197916667  C 24.0437825520833 18.8062065972222  23.583984375 19  23.046875 19  L 1.953125 19  C 1.416015625 19  0.956217447916667 18.8062065972222  0.57373046875 18.4186197916667  C 0.191243489583333 18.0310329861111  0 17.5651041666667  0 17.0208333333333  L 0 1.97916666666667  C 0 1.43489583333333  0.191243489583333 0.968967013888888  0.57373046875 0.581380208333334  C 0.956217447916667 0.193793402777776  1.416015625 0  1.953125 0  L 23.046875 0  C 23.583984375 0  24.0437825520833 0.193793402777776  24.42626953125 0.581380208333334  Z " fill-rule="nonzero" fill="#7f7f7f" stroke="none" transform="matrix(1 0 0 1 622 113 )" />
  </g>
</svg>