<?xml version="1.0" encoding="utf-8"?>
<svg version="1.1" xmlns:xlink="http://www.w3.org/1999/xlink" width="20px" height="20px" xmlns="http://www.w3.org/2000/svg">
  <g transform="matrix(1 0 0 1 -624 -18 )">
    <path d="M 11.4362980769231 5.13392857142857  C 12.0492788461538 5.69940476190476  12.3557692307692 6.38392857142857  12.3557692307692 7.1875  C 12.3557692307692 7.98363095238095  12.0492788461538 8.66443452380952  11.4362980769231 9.22991071428571  C 10.8233173076923 9.79538690476191  10.088141025641 10.078125  9.23076923076923 10.078125  C 8.37339743589744 10.078125  7.63822115384615 9.79538690476191  7.02524038461538 9.22991071428571  C 6.41225961538462 8.66443452380952  6.10576923076923 7.98363095238095  6.10576923076923 7.1875  C 6.10576923076923 6.38392857142857  6.41225961538462 5.69940476190476  7.02524038461538 5.13392857142857  C 7.63822115384615 4.56845238095238  8.37339743589744 4.28571428571429  9.23076923076923 4.28571428571429  C 10.088141025641 4.28571428571429  10.8233173076923 4.56845238095238  11.4362980769231 5.13392857142857  Z M 11.3942307692308 9.86049107142857  C 11.5945512820513 9.74516369047619  11.7227564102564 9.67261904761905  11.7788461538462 9.64285714285714  C 12.1474358974359 9.64285714285714  12.4779647435897 9.70610119047619  12.7704326923077 9.83258928571429  C 13.0629006410256 9.95907738095238  13.3032852564103 10.1357886904762  13.4915865384615 10.3627232142857  C 13.6798878205128 10.5896577380952  13.838141025641 10.8389136904762  13.9663461538462 11.1104910714286  C 14.0945512820513 11.382068452381  14.1907051282051 11.6834077380952  14.2548076923077 12.0145089285714  C 14.3189102564103 12.3456101190476  14.364983974359 12.6525297619048  14.3930288461538 12.9352678571429  C 14.4210737179487 13.218005952381  14.4350961538462 13.5119047619048  14.4350961538462 13.8169642857143  C 14.4350961538462 14.3154761904762  14.276842948718 14.7563244047619  13.9603365384615 15.1395089285714  C 13.6438301282051 15.522693452381  13.2211538461538 15.7142857142857  12.6923076923077 15.7142857142857  L 5.76923076923077 15.7142857142857  C 5.24038461538462 15.7142857142857  4.81770833333333 15.522693452381  4.50120192307692 15.1395089285714  C 4.18469551282051 14.7563244047619  4.02644230769231 14.3154761904762  4.02644230769231 13.8169642857143  C 4.02644230769231 13.4598214285714  4.04447115384615 13.1119791666667  4.08052884615385 12.7734375  C 4.11658653846154 12.4348958333333  4.19070512820513 12.0684523809524  4.30288461538462 11.6741071428571  C 4.4150641025641 11.2797619047619  4.56129807692308 10.9393601190476  4.74158653846154 10.6529017857143  C 4.921875 10.366443452381  5.17427884615385 10.1264880952381  5.49879807692308 9.93303571428571  C 5.82331730769231 9.73958333333333  6.19791666666667 9.64285714285714  6.62259615384615 9.64285714285714  L 6.68269230769231 9.64285714285714  C 6.73878205128205 9.67261904761905  6.86698717948718 9.74516369047619  7.06730769230769 9.86049107142857  C 7.26762820512821 9.97581845238095  7.40985576923077 10.053943452381  7.49399038461538 10.0948660714286  C 7.578125 10.1357886904762  7.71033653846154 10.1990327380952  7.890625 10.2845982142857  C 8.07091346153846 10.3701636904762  8.21915064102564 10.4296875  8.33533653846154 10.4631696428571  C 8.45152243589744 10.4966517857143  8.5917467948718 10.5301339285714  8.75600961538461 10.5636160714286  C 8.92027243589744 10.5970982142857  9.07852564102564 10.6138392857143  9.23076923076923 10.6138392857143  C 9.38301282051282 10.6138392857143  9.54126602564103 10.5970982142857  9.70552884615385 10.5636160714286  C 9.86979166666667 10.5301339285714  10.010016025641 10.4966517857143  10.1262019230769 10.4631696428571  C 10.2423878205128 10.4296875  10.390625 10.3701636904762  10.5709134615385 10.2845982142857  C 10.7512019230769 10.1990327380952  10.8834134615385 10.1357886904762  10.9675480769231 10.0948660714286  C 11.0516826923077 10.053943452381  11.1939102564103 9.97581845238095  11.3942307692308 9.86049107142857  Z M 20 4.64285714285714  L 20 6.78571428571429  C 20 6.88244047619047  19.9619391025641 6.96614583333333  19.8858173076923 7.03683035714286  C 19.8096955128205 7.10751488095238  19.7195512820513 7.14285714285714  19.6153846153846 7.14285714285714  L 18.4615384615385 7.14285714285714  L 18.4615384615385 8.57142857142857  L 19.6153846153846 8.57142857142857  C 19.7195512820513 8.57142857142857  19.8096955128205 8.60677083333334  19.8858173076923 8.67745535714286  C 19.9619391025641 8.74813988095238  20 8.83184523809524  20 8.92857142857143  L 20 11.0714285714286  C 20 11.1681547619048  19.9619391025641 11.2518601190476  19.8858173076923 11.3225446428571  C 19.8096955128205 11.3932291666667  19.7195512820513 11.4285714285714  19.6153846153846 11.4285714285714  L 18.4615384615385 11.4285714285714  L 18.4615384615385 12.8571428571429  L 19.6153846153846 12.8571428571429  C 19.7195512820513 12.8571428571429  19.8096955128205 12.8924851190476  19.8858173076923 12.9631696428571  C 19.9619391025641 13.0338541666667  20 13.1175595238095  20 13.2142857142857  L 20 15.3571428571429  C 20 15.453869047619  19.9619391025641 15.5375744047619  19.8858173076923 15.6082589285714  C 19.8096955128205 15.678943452381  19.7195512820513 15.7142857142857  19.6153846153846 15.7142857142857  L 18.4615384615385 15.7142857142857  L 18.4615384615385 18.2142857142857  C 18.4615384615385 18.7053571428571  18.2732371794872 19.125744047619  17.8966346153846 19.4754464285714  C 17.5200320512821 19.8251488095238  17.0673076923077 20  16.5384615384615 20  L 1.92307692307692 20  C 1.39423076923077 20  0.94150641025641 19.8251488095238  0.564903846153846 19.4754464285714  C 0.188301282051282 19.125744047619  0 18.7053571428571  0 18.2142857142857  L 0 1.78571428571429  C 0 1.29464285714286  0.188301282051282 0.874255952380951  0.564903846153846 0.524553571428572  C 0.94150641025641 0.174851190476191  1.39423076923077 0  1.92307692307692 0  L 16.5384615384615 0  C 17.0673076923077 0  17.5200320512821 0.174851190476191  17.8966346153846 0.524553571428572  C 18.2732371794872 0.874255952380951  18.4615384615385 1.29464285714286  18.4615384615385 1.78571428571429  L 18.4615384615385 4.28571428571429  L 19.6153846153846 4.28571428571429  C 19.7195512820513 4.28571428571429  19.8096955128205 4.32105654761905  19.8858173076923 4.39174107142857  C 19.9619391025641 4.46242559523809  20 4.54613095238095  20 4.64285714285714  Z M 16.8088942307692 18.4654017857143  C 16.885016025641 18.3947172619048  16.9230769230769 18.3110119047619  17 18.2142857142857  L 17 1.78571428571429  C 16.9230769230769 1.6889880952381  16.885016025641 1.60528273809524  16.8088942307692 1.53459821428571  C 16.7327724358974 1.46391369047619  16.6426282051282 1.42857142857143  16.5384615384615 1.42857142857143  L 1.92307692307692 1.42857142857143  C 1.81891025641026 1.42857142857143  1.72876602564103 1.46391369047619  1.65264423076923 1.53459821428571  C 1.57652243589744 1.60528273809524  1.53846153846154 1.6889880952381  1.53846153846154 1.78571428571429  L 1.53846153846154 18.2142857142857  C 1.53846153846154 18.3110119047619  1.57652243589744 18.3947172619048  1.65264423076923 18.4654017857143  C 1.72876602564103 18.5360863095238  1.81891025641026 18.5714285714286  1.92307692307692 18.5714285714286  L 16.5384615384615 18.5714285714286  C 16.6426282051282 18.5714285714286  16.7327724358974 18.5360863095238  16.8088942307692 18.4654017857143  Z " fill-rule="nonzero" fill="#7f7f7f" stroke="none" transform="matrix(1 0 0 1 624 18 )" />
  </g>
</svg>