<?xml version="1.0" encoding="utf-8"?>
<svg version="1.1" xmlns:xlink="http://www.w3.org/1999/xlink" width="16px" height="13px" xmlns="http://www.w3.org/2000/svg">
  <g transform="matrix(1 0 0 1 -745 -1358 )">
    <path d="M 1.23076923076923 9.98214285714286  L 1.23076923076923 12.0714285714286  L 4 12.0714285714286  L 4 9.98214285714286  L 1.23076923076923 9.98214285714286  Z M 4.61538461538461 9.98214285714286  L 4.61538461538461 12.0714285714286  L 7.69230769230769 12.0714285714286  L 7.69230769230769 9.98214285714286  L 4.61538461538461 9.98214285714286  Z M 1.23076923076923 7.19642857142857  L 1.23076923076923 9.51785714285714  L 4 9.51785714285714  L 4 7.19642857142857  L 1.23076923076923 7.19642857142857  Z M 4.61538461538461 7.19642857142857  L 4.61538461538461 9.51785714285714  L 7.69230769230769 9.51785714285714  L 7.69230769230769 7.19642857142857  L 4.61538461538461 7.19642857142857  Z M 1.23076923076923 4.64285714285714  L 1.23076923076923 6.73214285714286  L 4 6.73214285714286  L 4 4.64285714285714  L 1.23076923076923 4.64285714285714  Z M 8.30769230769231 9.98214285714286  L 8.30769230769231 12.0714285714286  L 11.3846153846154 12.0714285714286  L 11.3846153846154 9.98214285714286  L 8.30769230769231 9.98214285714286  Z M 4.61538461538461 4.64285714285714  L 4.61538461538461 6.73214285714286  L 7.69230769230769 6.73214285714286  L 7.69230769230769 4.64285714285714  L 4.61538461538461 4.64285714285714  Z M 12 9.98214285714286  L 12 12.0714285714286  L 14.7692307692308 12.0714285714286  L 14.7692307692308 9.98214285714286  L 12 9.98214285714286  Z M 8.30769230769231 7.19642857142857  L 8.30769230769231 9.51785714285714  L 11.3846153846154 9.51785714285714  L 11.3846153846154 7.19642857142857  L 8.30769230769231 7.19642857142857  Z M 4.83173076923077 3.41322544642857  C 4.89262820512821 3.36728050595238  4.92307692307692 3.31287202380952  4.92307692307692 3.25  L 4.92307692307692 1.16071428571429  C 4.92307692307692 1.09784226190476  4.89262820512821 1.0434337797619  4.83173076923077 0.997488839285714  C 4.77083333333333 0.951543898809523  4.69871794871795 0.928571428571428  4.61538461538461 0.928571428571428  L 4 0.928571428571428  C 3.91666666666667 0.928571428571428  3.84455128205128 0.951543898809523  3.78365384615385 0.997488839285714  C 3.72275641025641 1.0434337797619  3.69230769230769 1.09784226190476  3.69230769230769 1.16071428571429  L 3.69230769230769 3.25  C 3.69230769230769 3.31287202380952  3.72275641025641 3.36728050595238  3.78365384615385 3.41322544642857  C 3.84455128205128 3.45917038690476  3.91666666666667 3.48214285714286  4 3.48214285714286  L 4.61538461538461 3.48214285714286  C 4.69871794871795 3.48214285714286  4.77083333333333 3.45917038690476  4.83173076923077 3.41322544642857  Z M 12 7.19642857142857  L 12 9.51785714285714  L 14.7692307692308 9.51785714285714  L 14.7692307692308 7.19642857142857  L 12 7.19642857142857  Z M 8.30769230769231 4.64285714285714  L 8.30769230769231 6.73214285714286  L 11.3846153846154 6.73214285714286  L 11.3846153846154 4.64285714285714  L 8.30769230769231 4.64285714285714  Z M 12 4.64285714285714  L 12 6.73214285714286  L 14.7692307692308 6.73214285714286  L 14.7692307692308 4.64285714285714  L 12 4.64285714285714  Z M 12.2163461538462 3.41322544642857  C 12.2772435897436 3.36728050595238  12.3076923076923 3.31287202380952  12.3076923076923 3.25  L 12.3076923076923 1.16071428571429  C 12.3076923076923 1.09784226190476  12.2772435897436 1.0434337797619  12.2163461538462 0.997488839285714  C 12.1554487179487 0.951543898809523  12.0833333333333 0.928571428571428  12 0.928571428571428  L 11.3846153846154 0.928571428571428  C 11.3012820512821 0.928571428571428  11.2291666666667 0.951543898809523  11.1682692307692 0.997488839285714  C 11.1073717948718 1.0434337797619  11.0769230769231 1.09784226190476  11.0769230769231 1.16071428571429  L 11.0769230769231 3.25  C 11.0769230769231 3.31287202380952  11.1073717948718 3.36728050595238  11.1682692307692 3.41322544642857  C 11.2291666666667 3.45917038690476  11.3012820512821 3.48214285714286  11.3846153846154 3.48214285714286  L 12 3.48214285714286  C 12.0833333333333 3.48214285714286  12.1554487179487 3.45917038690476  12.2163461538462 3.41322544642857  Z M 15.6346153846154 2.1328125  C 15.8782051282051 2.31659226190476  16 2.53422619047619  16 2.78571428571429  L 16 12.0714285714286  C 16 12.3229166666667  15.8782051282051 12.5405505952381  15.6346153846154 12.7243303571429  C 15.3910256410256 12.9081101190476  15.1025641025641 13  14.7692307692308 13  L 1.23076923076923 13  C 0.897435897435898 13  0.608974358974359 12.9081101190476  0.365384615384615 12.7243303571429  C 0.121794871794872 12.5405505952381  0 12.3229166666667  0 12.0714285714286  L 0 2.78571428571429  C 0 2.53422619047619  0.121794871794872 2.31659226190476  0.365384615384615 2.1328125  C 0.608974358974359 1.94903273809524  0.897435897435898 1.85714285714286  1.23076923076923 1.85714285714286  L 2.46153846153846 1.85714285714286  L 2.46153846153846 1.16071428571429  C 2.46153846153846 0.841517857142858  2.61217948717949 0.568266369047618  2.91346153846154 0.340959821428572  C 3.21474358974359 0.113653273809524  3.57692307692308 0  4 0  L 4.61538461538461 0  C 5.03846153846154 0  5.40064102564103 0.113653273809524  5.70192307692308 0.340959821428572  C 6.00320512820513 0.568266369047618  6.15384615384615 0.841517857142858  6.15384615384615 1.16071428571429  L 6.15384615384615 1.85714285714286  L 9.84615384615385 1.85714285714286  L 9.84615384615385 1.16071428571429  C 9.84615384615385 0.841517857142858  9.99679487179487 0.568266369047618  10.2980769230769 0.340959821428572  C 10.599358974359 0.113653273809524  10.9615384615385 0  11.3846153846154 0  L 12 0  C 12.4230769230769 0  12.7852564102564 0.113653273809524  13.0865384615385 0.340959821428572  C 13.3878205128205 0.568266369047618  13.5384615384615 0.841517857142858  13.5384615384615 1.16071428571429  L 13.5384615384615 1.85714285714286  L 14.7692307692308 1.85714285714286  C 15.1025641025641 1.85714285714286  15.3910256410256 1.94903273809524  15.6346153846154 2.1328125  Z " fill-rule="nonzero" fill="#8c8c8c" stroke="none" transform="matrix(1 0 0 1 745 1358 )" />
  </g>
</svg>