<?xml version="1.0" encoding="utf-8"?>
<svg version="1.1" xmlns:xlink="http://www.w3.org/1999/xlink" width="12px" height="15px" xmlns="http://www.w3.org/2000/svg">
  <g transform="matrix(1 0 0 1 -412 -2294 )">
    <path d="M 0.923076923076923 11.5178571428571  L 0.923076923076923 13.9285714285714  L 3 13.9285714285714  L 3 11.5178571428571  L 0.923076923076923 11.5178571428571  Z M 3.46153846153846 11.5178571428571  L 3.46153846153846 13.9285714285714  L 5.76923076923077 13.9285714285714  L 5.76923076923077 11.5178571428571  L 3.46153846153846 11.5178571428571  Z M 0.923076923076923 8.30357142857143  L 0.923076923076923 10.9821428571429  L 3 10.9821428571429  L 3 8.30357142857143  L 0.923076923076923 8.30357142857143  Z M 3.46153846153846 8.30357142857143  L 3.46153846153846 10.9821428571429  L 5.76923076923077 10.9821428571429  L 5.76923076923077 8.30357142857143  L 3.46153846153846 8.30357142857143  Z M 0.923076923076923 5.35714285714286  L 0.923076923076923 7.76785714285714  L 3 7.76785714285714  L 3 5.35714285714286  L 0.923076923076923 5.35714285714286  Z M 6.23076923076923 11.5178571428571  L 6.23076923076923 13.9285714285714  L 8.53846153846154 13.9285714285714  L 8.53846153846154 11.5178571428571  L 6.23076923076923 11.5178571428571  Z M 3.46153846153846 5.35714285714286  L 3.46153846153846 7.76785714285714  L 5.76923076923077 7.76785714285714  L 5.76923076923077 5.35714285714286  L 3.46153846153846 5.35714285714286  Z M 9 11.5178571428571  L 9 13.9285714285714  L 11.0769230769231 13.9285714285714  L 11.0769230769231 11.5178571428571  L 9 11.5178571428571  Z M 6.23076923076923 8.30357142857143  L 6.23076923076923 10.9821428571429  L 8.53846153846154 10.9821428571429  L 8.53846153846154 8.30357142857143  L 6.23076923076923 8.30357142857143  Z M 3.62379807692308 3.93833705357143  C 3.66947115384615 3.88532366071428  3.69230769230769 3.82254464285714  3.69230769230769 3.75  L 3.69230769230769 1.33928571428571  C 3.69230769230769 1.26674107142857  3.66947115384615 1.20396205357143  3.62379807692308 1.15094866071429  C 3.578125 1.09793526785714  3.52403846153846 1.07142857142857  3.46153846153846 1.07142857142857  L 3 1.07142857142857  C 2.9375 1.07142857142857  2.88341346153846 1.09793526785714  2.83774038461538 1.15094866071429  C 2.79206730769231 1.20396205357143  2.76923076923077 1.26674107142857  2.76923076923077 1.33928571428571  L 2.76923076923077 3.75  C 2.76923076923077 3.82254464285714  2.79206730769231 3.88532366071428  2.83774038461538 3.93833705357143  C 2.88341346153846 3.99135044642857  2.9375 4.01785714285714  3 4.01785714285714  L 3.46153846153846 4.01785714285714  C 3.52403846153846 4.01785714285714  3.578125 3.99135044642857  3.62379807692308 3.93833705357143  Z M 9 8.30357142857143  L 9 10.9821428571429  L 11.0769230769231 10.9821428571429  L 11.0769230769231 8.30357142857143  L 9 8.30357142857143  Z M 6.23076923076923 5.35714285714286  L 6.23076923076923 7.76785714285714  L 8.53846153846154 7.76785714285714  L 8.53846153846154 5.35714285714286  L 6.23076923076923 5.35714285714286  Z M 9 5.35714285714286  L 9 7.76785714285714  L 11.0769230769231 7.76785714285714  L 11.0769230769231 5.35714285714286  L 9 5.35714285714286  Z M 9.16225961538461 3.93833705357143  C 9.20793269230769 3.88532366071428  9.23076923076923 3.82254464285714  9.23076923076923 3.75  L 9.23076923076923 1.33928571428571  C 9.23076923076923 1.26674107142857  9.20793269230769 1.20396205357143  9.16225961538461 1.15094866071429  C 9.11658653846154 1.09793526785714  9.0625 1.07142857142857  9 1.07142857142857  L 8.53846153846154 1.07142857142857  C 8.47596153846154 1.07142857142857  8.421875 1.09793526785714  8.37620192307692 1.15094866071429  C 8.33052884615385 1.20396205357143  8.30769230769231 1.26674107142857  8.30769230769231 1.33928571428571  L 8.30769230769231 3.75  C 8.30769230769231 3.82254464285714  8.33052884615385 3.88532366071428  8.37620192307692 3.93833705357143  C 8.421875 3.99135044642857  8.47596153846154 4.01785714285714  8.53846153846154 4.01785714285714  L 9 4.01785714285714  C 9.0625 4.01785714285714  9.11658653846154 3.99135044642857  9.16225961538461 3.93833705357143  Z M 11.7259615384615 2.4609375  C 11.9086538461538 2.67299107142857  12 2.92410714285714  12 3.21428571428571  L 12 13.9285714285714  C 12 14.21875  11.9086538461538 14.4698660714286  11.7259615384615 14.6819196428571  C 11.5432692307692 14.8939732142857  11.3269230769231 15  11.0769230769231 15  L 0.923076923076923 15  C 0.673076923076923 15  0.456730769230769 14.8939732142857  0.274038461538462 14.6819196428571  C 0.0913461538461538 14.4698660714286  0 14.21875  0 13.9285714285714  L 0 3.21428571428571  C 0 2.92410714285714  0.0913461538461538 2.67299107142857  0.274038461538462 2.4609375  C 0.456730769230769 2.24888392857143  0.673076923076923 2.14285714285714  0.923076923076923 2.14285714285714  L 1.84615384615385 2.14285714285714  L 1.84615384615385 1.33928571428571  C 1.84615384615385 0.970982142857144  1.95913461538462 0.655691964285713  2.18509615384615 0.393415178571429  C 2.41105769230769 0.131138392857143  2.68269230769231 0  3 0  L 3.46153846153846 0  C 3.77884615384615 0  4.05048076923077 0.131138392857143  4.27644230769231 0.393415178571429  C 4.50240384615385 0.655691964285713  4.61538461538462 0.970982142857144  4.61538461538462 1.33928571428571  L 4.61538461538462 2.14285714285714  L 7.38461538461539 2.14285714285714  L 7.38461538461539 1.33928571428571  C 7.38461538461539 0.970982142857144  7.49759615384615 0.655691964285713  7.72355769230769 0.393415178571429  C 7.94951923076923 0.131138392857143  8.22115384615385 0  8.53846153846154 0  L 9 0  C 9.31730769230769 0  9.58894230769231 0.131138392857143  9.81490384615385 0.393415178571429  C 10.0408653846154 0.655691964285713  10.1538461538462 0.970982142857144  10.1538461538462 1.33928571428571  L 10.1538461538462 2.14285714285714  L 11.0769230769231 2.14285714285714  C 11.3269230769231 2.14285714285714  11.5432692307692 2.24888392857143  11.7259615384615 2.4609375  Z " fill-rule="nonzero" fill="#8c8c8c" stroke="none" transform="matrix(1 0 0 1 412 2294 )" />
  </g>
</svg>