<?xml version="1.0" encoding="utf-8"?>
<svg version="1.1" xmlns:xlink="http://www.w3.org/1999/xlink" width="12px" height="12px" viewBox="254 1580  12 12" xmlns="http://www.w3.org/2000/svg">
  <path d="M 260 1580  C 263.36 1580  266 1582.64  266 1586  C 266 1589.36  263.36 1592  260 1592  C 256.64 1592  254 1589.36  254 1586  C 254 1582.64  256.64 1580  260 1580  Z " fill-rule="nonzero" fill="#ffffff" stroke="none" />
  <path d="M 260 1580.5  C 263.08 1580.5  265.5 1582.92  265.5 1586  C 265.5 1589.08  263.08 1591.5  260 1591.5  C 256.92 1591.5  254.5 1589.08  254.5 1586  C 254.5 1582.92  256.92 1580.5  260 1580.5  Z " stroke-width="1" stroke="#797979" fill="none" />
  <path d="M 260 1589  C 258.32 1589  257 1587.68  257 1586  C 257 1584.32  258.32 1583  260 1583  C 261.68 1583  263 1584.32  263 1586  C 263 1587.68  261.68 1589  260 1589  " fill-rule="nonzero" fill="#797979" stroke="none" />
</svg>