<?xml version="1.0" encoding="utf-8"?>
<svg version="1.1" xmlns:xlink="http://www.w3.org/1999/xlink" width="16px" height="15px" xmlns="http://www.w3.org/2000/svg">
  <g transform="matrix(1 0 0 1 -1357 -297 )">
    <path d="M 1.23076923076923 11.5178571428571  L 1.23076923076923 13.9285714285714  L 4 13.9285714285714  L 4 11.5178571428571  L 1.23076923076923 11.5178571428571  Z M 4.61538461538461 11.5178571428571  L 4.61538461538461 13.9285714285714  L 7.69230769230769 13.9285714285714  L 7.69230769230769 11.5178571428571  L 4.61538461538461 11.5178571428571  Z M 1.23076923076923 8.30357142857143  L 1.23076923076923 10.9821428571429  L 4 10.9821428571429  L 4 8.30357142857143  L 1.23076923076923 8.30357142857143  Z M 4.61538461538461 8.30357142857143  L 4.61538461538461 10.9821428571429  L 7.69230769230769 10.9821428571429  L 7.69230769230769 8.30357142857143  L 4.61538461538461 8.30357142857143  Z M 1.23076923076923 5.35714285714286  L 1.23076923076923 7.76785714285714  L 4 7.76785714285714  L 4 5.35714285714286  L 1.23076923076923 5.35714285714286  Z M 8.30769230769231 11.5178571428571  L 8.30769230769231 13.9285714285714  L 11.3846153846154 13.9285714285714  L 11.3846153846154 11.5178571428571  L 8.30769230769231 11.5178571428571  Z M 4.61538461538461 5.35714285714286  L 4.61538461538461 7.76785714285714  L 7.69230769230769 7.76785714285714  L 7.69230769230769 5.35714285714286  L 4.61538461538461 5.35714285714286  Z M 12 11.5178571428571  L 12 13.9285714285714  L 14.7692307692308 13.9285714285714  L 14.7692307692308 11.5178571428571  L 12 11.5178571428571  Z M 8.30769230769231 8.30357142857143  L 8.30769230769231 10.9821428571429  L 11.3846153846154 10.9821428571429  L 11.3846153846154 8.30357142857143  L 8.30769230769231 8.30357142857143  Z M 4.83173076923077 3.93833705357143  C 4.89262820512821 3.88532366071428  4.92307692307692 3.82254464285714  4.92307692307692 3.75  L 4.92307692307692 1.33928571428571  C 4.92307692307692 1.26674107142857  4.89262820512821 1.20396205357143  4.83173076923077 1.15094866071429  C 4.77083333333333 1.09793526785714  4.69871794871795 1.07142857142857  4.61538461538461 1.07142857142857  L 4 1.07142857142857  C 3.91666666666667 1.07142857142857  3.84455128205128 1.09793526785714  3.78365384615385 1.15094866071429  C 3.72275641025641 1.20396205357143  3.69230769230769 1.26674107142857  3.69230769230769 1.33928571428571  L 3.69230769230769 3.75  C 3.69230769230769 3.82254464285714  3.72275641025641 3.88532366071428  3.78365384615385 3.93833705357143  C 3.84455128205128 3.99135044642857  3.91666666666667 4.01785714285714  4 4.01785714285714  L 4.61538461538461 4.01785714285714  C 4.69871794871795 4.01785714285714  4.77083333333333 3.99135044642857  4.83173076923077 3.93833705357143  Z M 12 8.30357142857143  L 12 10.9821428571429  L 14.7692307692308 10.9821428571429  L 14.7692307692308 8.30357142857143  L 12 8.30357142857143  Z M 8.30769230769231 5.35714285714286  L 8.30769230769231 7.76785714285714  L 11.3846153846154 7.76785714285714  L 11.3846153846154 5.35714285714286  L 8.30769230769231 5.35714285714286  Z M 12 5.35714285714286  L 12 7.76785714285714  L 14.7692307692308 7.76785714285714  L 14.7692307692308 5.35714285714286  L 12 5.35714285714286  Z M 12.2163461538462 3.93833705357143  C 12.2772435897436 3.88532366071428  12.3076923076923 3.82254464285714  12.3076923076923 3.75  L 12.3076923076923 1.33928571428571  C 12.3076923076923 1.26674107142857  12.2772435897436 1.20396205357143  12.2163461538462 1.15094866071429  C 12.1554487179487 1.09793526785714  12.0833333333333 1.07142857142857  12 1.07142857142857  L 11.3846153846154 1.07142857142857  C 11.3012820512821 1.07142857142857  11.2291666666667 1.09793526785714  11.1682692307692 1.15094866071429  C 11.1073717948718 1.20396205357143  11.0769230769231 1.26674107142857  11.0769230769231 1.33928571428571  L 11.0769230769231 3.75  C 11.0769230769231 3.82254464285714  11.1073717948718 3.88532366071428  11.1682692307692 3.93833705357143  C 11.2291666666667 3.99135044642857  11.3012820512821 4.01785714285714  11.3846153846154 4.01785714285714  L 12 4.01785714285714  C 12.0833333333333 4.01785714285714  12.1554487179487 3.99135044642857  12.2163461538462 3.93833705357143  Z M 15.6346153846154 2.4609375  C 15.8782051282051 2.67299107142857  16 2.92410714285714  16 3.21428571428571  L 16 13.9285714285714  C 16 14.21875  15.8782051282051 14.4698660714286  15.6346153846154 14.6819196428571  C 15.3910256410256 14.8939732142857  15.1025641025641 15  14.7692307692308 15  L 1.23076923076923 15  C 0.897435897435898 15  0.608974358974359 14.8939732142857  0.365384615384615 14.6819196428571  C 0.121794871794872 14.4698660714286  0 14.21875  0 13.9285714285714  L 0 3.21428571428571  C 0 2.92410714285714  0.121794871794872 2.67299107142857  0.365384615384615 2.4609375  C 0.608974358974359 2.24888392857143  0.897435897435898 2.14285714285714  1.23076923076923 2.14285714285714  L 2.46153846153846 2.14285714285714  L 2.46153846153846 1.33928571428571  C 2.46153846153846 0.970982142857144  2.61217948717949 0.655691964285713  2.91346153846154 0.393415178571429  C 3.21474358974359 0.131138392857143  3.57692307692308 0  4 0  L 4.61538461538461 0  C 5.03846153846154 0  5.40064102564103 0.131138392857143  5.70192307692308 0.393415178571429  C 6.00320512820513 0.655691964285713  6.15384615384615 0.970982142857144  6.15384615384615 1.33928571428571  L 6.15384615384615 2.14285714285714  L 9.84615384615385 2.14285714285714  L 9.84615384615385 1.33928571428571  C 9.84615384615385 0.970982142857144  9.99679487179487 0.655691964285713  10.2980769230769 0.393415178571429  C 10.599358974359 0.131138392857143  10.9615384615385 0  11.3846153846154 0  L 12 0  C 12.4230769230769 0  12.7852564102564 0.131138392857143  13.0865384615385 0.393415178571429  C 13.3878205128205 0.655691964285713  13.5384615384615 0.970982142857144  13.5384615384615 1.33928571428571  L 13.5384615384615 2.14285714285714  L 14.7692307692308 2.14285714285714  C 15.1025641025641 2.14285714285714  15.3910256410256 2.24888392857143  15.6346153846154 2.4609375  Z " fill-rule="nonzero" fill="#8c8c8c" stroke="none" transform="matrix(1 0 0 1 1357 297 )" />
  </g>
</svg>