<?xml version="1.0" encoding="utf-8"?>
<svg version="1.1" xmlns:xlink="http://www.w3.org/1999/xlink" width="24px" height="20px" xmlns="http://www.w3.org/2000/svg">
  <g transform="matrix(1 0 0 1 -49 -809 )">
    <path d="M 18.1875 18.1625  C 18.3701923076923 18.0041666666667  18.4615384615385 17.8166666666667  18.4615384615385 17.6  C 18.4615384615385 17.3833333333333  18.3701923076923 17.1958333333333  18.1875 17.0375  C 18.0048076923077 16.8791666666667  17.7884615384615 16.8  17.5384615384615 16.8  C 17.2884615384615 16.8  17.0721153846154 16.8791666666667  16.8894230769231 17.0375  C 16.7067307692308 17.1958333333333  16.6153846153846 17.3833333333333  16.6153846153846 17.6  C 16.6153846153846 17.8166666666667  16.7067307692308 18.0041666666667  16.8894230769231 18.1625  C 17.0721153846154 18.3208333333333  17.2884615384615 18.4  17.5384615384615 18.4  C 17.7884615384615 18.4  18.0048076923077 18.3208333333333  18.1875 18.1625  Z M 21.8798076923077 18.1625  C 22.0625 18.0041666666667  22.1538461538462 17.8166666666667  22.1538461538462 17.6  C 22.1538461538462 17.3833333333333  22.0625 17.1958333333333  21.8798076923077 17.0375  C 21.6971153846154 16.8791666666667  21.4807692307692 16.8  21.2307692307692 16.8  C 20.9807692307692 16.8  20.7644230769231 16.8791666666667  20.5817307692308 17.0375  C 20.3990384615385 17.1958333333333  20.3076923076923 17.3833333333333  20.3076923076923 17.6  C 20.3076923076923 17.8166666666667  20.3990384615385 18.0041666666667  20.5817307692308 18.1625  C 20.7644230769231 18.3208333333333  20.9807692307692 18.4  21.2307692307692 18.4  C 21.4807692307692 18.4  21.6971153846154 18.3208333333333  21.8798076923077 18.1625  Z M 23.5961538461538 13.95  C 23.8653846153846 14.1833333333333  24 14.4666666666667  24 14.8  L 24 18.8  C 24 19.1333333333333  23.8653846153846 19.4166666666667  23.5961538461538 19.65  C 23.3269230769231 19.8833333333333  23 20  22.6153846153846 20  L 1.38461538461538 20  C 1 20  0.673076923076923 19.8833333333333  0.403846153846154 19.65  C 0.134615384615385 19.4166666666667  0 19.1333333333333  0 18.8  L 0 14.8  C 0 14.4666666666667  0.134615384615385 14.1833333333333  0.403846153846154 13.95  C 0.673076923076923 13.7166666666667  1 13.6  1.38461538461538 13.6  L 7.54326923076923 13.6  C 7.74519230769231 14.0666666666667  8.08413461538461 14.45  8.56009615384615 14.75  C 9.03605769230769 15.05  9.56730769230769 15.2  10.1538461538462 15.2  L 13.8461538461538 15.2  C 14.4326923076923 15.2  14.9639423076923 15.05  15.4399038461538 14.75  C 15.9158653846154 14.45  16.2548076923077 14.0666666666667  16.4567307692308 13.6  L 22.6153846153846 13.6  C 23 13.6  23.3269230769231 13.7166666666667  23.5961538461538 13.95  Z M 19.1105769230769 5.8375  C 19.4086538461538 6.0875  19.4759615384615 6.375  19.3125 6.7  C 19.1490384615385 7.03333333333333  18.8653846153846 7.2  18.4615384615385 7.2  L 14.7692307692308 7.2  L 14.7692307692308 12.8  C 14.7692307692308 13.0166666666667  14.6778846153846 13.2041666666667  14.4951923076923 13.3625  C 14.3125 13.5208333333333  14.0961538461538 13.6  13.8461538461538 13.6  L 10.1538461538462 13.6  C 9.90384615384616 13.6  9.6875 13.5208333333333  9.50480769230769 13.3625  C 9.32211538461539 13.2041666666667  9.23076923076923 13.0166666666667  9.23076923076923 12.8  L 9.23076923076923 7.2  L 5.53846153846154 7.2  C 5.13461538461538 7.2  4.85096153846154 7.03333333333333  4.6875 6.7  C 4.52403846153846 6.375  4.59134615384615 6.0875  4.88942307692308 5.8375  L 11.3509615384615 0.237499999999999  C 11.5240384615385 0.0791666666666657  11.7403846153846 0  12 0  C 12.2596153846154 0  12.4759615384615 0.0791666666666657  12.6490384615385 0.237499999999999  L 19.1105769230769 5.8375  Z " fill-rule="nonzero" fill="#aaaaaa" stroke="none" transform="matrix(1 0 0 1 49 809 )" />
  </g>
</svg>